<?xml version="1.0" encoding="utf-8"?>
<!-- Generator: Adobe Illustrator 19.0.0, SVG Export Plug-In . SVG Version: 6.00 Build 0)  -->
<svg version="1.1" id="Layer_1" xmlns="http://www.w3.org/2000/svg" xmlns:xlink="http://www.w3.org/1999/xlink" x="0px" y="0px"
	 viewBox="-617 925 300 200" enable-background="new -617 925 300 200" xml:space="preserve">
<g id="XMLID_56_">
	<path id="XMLID_110_" fill="#FFFFFF" d="M-371.13,1118.85c25.67-19.52,37.1-73.65-4.58-100.19c-27.6-17.57-44.76-7.55-75.8-19.17
		c-37.9-14.18-43.55-57.04-89.65-35.95c-24.42,11.17-41.35,42.65-44.33,78.42c-2.92,35.03,9.5,59.07,34.87,75.52
		C-491.03,1120.02-431.32,1119.56-371.13,1118.85z"/>
	<path id="XMLID_109_" fill="#FFFFFF" d="M-479.48,954.92c-3.88,15.57,10.52,30.98,25.69,37.37c15.17,6.39,32.57,5.63,48.82,2.58
		c7.01-1.31,14.22-3.16,19.67-7.63s8.61-12.23,5.62-18.5c-2.63-5.53-9.05-8.36-15.16-9.82c-6.12-1.45-12.61-2.05-18.06-5.11
		c-5.17-2.9-8.83-7.71-13.32-11.51c-8.3-7.02-19.96-10.5-30.75-8.28C-467.78,936.24-476.18,941.69-479.48,954.92z"/>
	<g id="XMLID_57_">
		<g id="XMLID_59_">
			<g id="XMLID_76_">
				<path id="XMLID_78_" fill="#E06A58" d="M-487.55,1083.65c0,0,1.18,10.85,2.51,11.72c2.37,1.56,29.77,5.17,29.77,5.17l-0.9,7.13
					c0,0-37.54,3.37-39.13,1.5c-2.77-3.25-7.63-18.95-7.63-18.95L-487.55,1083.65z"/>
				<path id="XMLID_77_" fill="#F2AE30" d="M-505.64,1055.72l3.03-7.28c0,0,8.23,3.87,10.94,8.64c2.9,5.1,6.45,32.23,6.45,32.23
					s-14.52,3.35-17.2,1.92C-505.08,1089.81-505.64,1055.72-505.64,1055.72z"/>
			</g>
			<path id="XMLID_75_" fill="#0A2240" d="M-528.74,1021.92c-2.12-0.78-4.37-1.46-6.65-1.29s-4.6,1.38-5.37,3.38
				c-0.55,1.42-0.3,3.09-1.17,4.36c-0.83,1.22-2.49,1.73-4.03,1.83c-1.55,0.11-3.11-0.1-4.65,0.1c-4.76,0.63-8.15,5.8-6.59,10.03
				c0.62,1.69,1.9,3.3,1.61,5.05c-0.31,1.88-2.28,3.12-3.09,4.87c-1.08,2.32,0.21,5.14,2.34,6.72c2.12,1.58,4.89,2.18,7.57,2.58
				c3.69,0.55,7.5,0.81,11.15,0.03c3.65-0.78,7.14-2.7,9.02-5.71c0.84-1.33,1.35-2.83,2.32-4.08c2.01-2.58,5.57-3.58,8.38-5.41
				c3.07-2.01,5.31-5.91,3.51-8.96c-1.74-2.94-6.27-3.59-8.09-6.48c-0.75-1.19-0.93-2.62-1.42-3.92
				C-524.41,1023.73-525.6,1023.07-528.74,1021.92z"/>
			<g id="XMLID_72_">
				<path id="XMLID_74_" fill="#F9A07B" d="M-516.36,1057.93c0.54,0.62,1.17,1.29,2.04,1.35c0.92,0.06,1.7-0.59,2.29-1.22
					c3.07-3.25,5.1-7.24,5.92-11.35c-0.76-0.43-1.5-0.85-2.16-1.24c-0.62-0.37-1.08-0.88-1.35-1.48c-0.18-0.44-0.25-0.91-0.2-1.39
					c0.43-4.07,0.82-6.33,2.24-10.45c-6.78-1.53-13.17-3.35-16.85-6.42c-0.45,1.89-0.98,5.59-2.11,9.27
					c-1.21,3.89-3.09,7.73-6.28,9.38C-526.55,1048.07-520.96,1052.66-516.36,1057.93z"/>
				<path id="XMLID_73_" fill="#E06A58" d="M-509.82,1042.6c-0.05,0.49,0.02,0.96,0.2,1.39c-4.01,4.87-12.98-1.49-16.91-9
					c1.13-3.67,1.66-7.37,2.11-9.27c3.67,3.07,10.07,4.89,16.85,6.42C-509,1036.27-509.38,1038.53-509.82,1042.6z"/>
			</g>
			<g id="XMLID_68_">
				<path id="XMLID_71_" fill="#FFC73C" d="M-498.65,1101.41c-0.89,5.87,5.45,12.19,5.61,15.33c-13.45,0-41.64,0.82-55.99-1.13
					c-0.65-3.62,6.43-11.77,6.43-19.81c0-1.06-0.04-2.23-0.13-3.49c-0.23-3.59-0.76-7.86-1.35-12.24
					c-1.6-11.75-3.73-24.31-2.16-26.91c3.08-5.08,10.29-8.52,13.86-10.01c1.23-0.51,2.03-0.78,2.09-0.82
					c4.48,7.64,13.6,14.16,17.04,13.87c0.96-0.08,3.79-1.06,5.67-10.51c0.73,0.42,1.46,0.8,2.18,1.17c3.56,1.85,6.9,3.38,7.87,5.77
					c2.54,6.28,5.03,22.1,4.48,27.73c-0.56,5.68-2.84,10.01-4.44,15.71c-0.37,1.34-0.71,2.75-0.99,4.28
					C-498.54,1100.69-498.59,1101.04-498.65,1101.41z"/>
				<path id="XMLID_70_" fill="#FFBB33" d="M-493.04,1116.74c-13.45,0-41.64,0.82-55.99-1.13c-0.65-3.62,6.43-11.77,6.43-19.81
					c0-1.06-0.04-2.23-0.13-3.49c-0.23-3.59-0.76-7.86-1.35-12.24c2.55,2.69,6.26-8.67,7.9-5.34c8.89,17.95,15.9,22.67,28.09,22.67
					c3.63,0,6.98-0.5,10.61-1.32c-0.37,1.34-0.71,2.75-0.99,4.28c-0.06,0.35-0.12,0.7-0.18,1.07
					C-499.54,1107.28-493.2,1113.59-493.04,1116.74z"/>
				<path id="XMLID_69_" fill="#FCE172" d="M-505.39,1046.87c-0.58,4.2-2.29,9.86-7.28,11.35c-6.74,2.02-16.48-10.57-19.71-15.07
					c1.23-0.51,2.03-0.78,2.09-0.82c4.48,7.64,13.6,14.16,17.04,13.87c0.96-0.08,3.79-1.06,5.67-10.51
					C-506.84,1046.11-506.11,1046.49-505.39,1046.87z"/>
			</g>
			<g id="XMLID_60_">
				<g id="XMLID_61_">
					<g id="XMLID_66_">
						<polygon id="XMLID_67_" fill="#325F73" points="-502.62,1110.42 -502.67,1115.1 -418.88,1115.6 -418.71,1110.29 						"/>
					</g>
					<g id="XMLID_63_">
						<polygon id="XMLID_65_" fill="#325F73" points="-382.57,1068.6 -384.43,1066.71 -445.46,1066.31 -476.08,1110.59 
							-474.48,1111.88 						"/>
						<polygon id="XMLID_64_" fill="#0B2D50" points="-444.28,1067.95 -474.48,1111.88 -416.8,1112.16 -382.57,1068.6 						"/>
					</g>
				</g>
				<ellipse id="XMLID_114_" fill="#3C738C" cx="-429.71" cy="1092.63" rx="6.71" ry="3.36"/>
			</g>
			<g id="XMLID_115_">
				<g id="XMLID_116_">
					
						<ellipse id="XMLID_117_" transform="matrix(-0.9831 -0.1832 0.1832 -0.9831 -1170.1 1943.3517)" fill="#56C4F9" cx="-495.29" cy="1025.72" rx="6.2" ry="9.4"/>
				</g>
				<path id="XMLID_118_" fill="#0B2D50" d="M-489.18,1010.84c-0.63,4.44-2.61,9.34-5.5,14.75c-1.02-4.43-1.66-9.83-2.56-15.23
					c-0.91-5.41-2.08-10.82-4.09-15.24c-0.45-0.98-0.95-1.91-1.48-2.78c1.19-0.11,2.41,0,3.56,0.32c1.8,0.48,3.49,1.41,4.87,2.65
					c2.29,2.04,3.83,4.82,4.74,7.75C-488.91,1005.49-488.77,1008.07-489.18,1010.84z"/>
				<g id="XMLID_119_">
					<path id="XMLID_120_" fill="#F9A07B" d="M-492.58,1015.43c-0.03,0.88-0.09,1.77-0.17,2.65c-1.23,14.38-7.27,24.24-16.51,24.24
						c-13.04,0-21.5-14.63-21.5-28.96c0-14.14,8.66-24.37,18.8-23.18c5.84,0.67,10.11,2.61,13.15,5.45
						c2.01,1.89,3.45,4.18,4.44,6.78c1.13,2.91,1.68,6.21,1.79,9.76c0,0.01,0.01,0.02,0.01,0.03
						C-492.53,1013.27-492.54,1014.34-492.58,1015.43z"/>
					<path id="XMLID_121_" fill="#E06A58" d="M-492.58,1015.43c-0.39-1.39-0.97-2.75-1.76-3.96c-7.69,4.02-16.86,5.57-25.55,4.1
						c-1.65,1.38-3.27,2.74-4.9,4.09c0.03-6.54,0.12-10.97,2.68-14.14c2.39-2.97,6.39-4.09,10.17-4.58
						c4.26-0.56,8.59-0.54,12.84,0.08c1.63,0.23,3.31,0.58,4.73,1.4c1.13,2.91,1.68,6.21,1.79,9.76c0,0.01,0.01,0.02,0.01,0.03
						C-492.53,1013.27-492.54,1014.34-492.58,1015.43z"/>
				</g>
				<path id="XMLID_122_" fill="#0B2D50" d="M-490.7,1006.58c-1.79,1.51-4.03,2.77-6.55,3.78c-7.17,2.89-16.48,3.85-23.74,3.5
					c-3.57,7.84-5.01,10.65-5.92,17.49c-3.49-3.27-6.32-9.26-7.17-13.97c-0.83-4.69-0.75-9.62,0.56-14.23
					c2.06-7.27,7.25-11.16,10.85-13.05c0.9-0.49,1.71-0.83,2.34-1.08c4.6-1.78,9.78-1.62,14.5-0.17c2.57,0.8,4.74,2.15,6.56,3.82
					c3.68,3.32,5.96,7.83,7.43,11.2C-491.38,1004.89-491.01,1005.83-490.7,1006.58z"/>
				<path id="XMLID_123_" fill="#225570" d="M-489.18,1010.84c-0.3-1.57-0.74-3.1-1.37-4.57c-0.35-0.83-0.78-1.64-1.29-2.42
					c-1.64-2.57-4.02-4.69-6.9-5.63c-0.82-1.15-1.69-2.19-2.59-3.11c-3.27-3.32-7.11-5.23-11.17-5.89
					c-3.38-0.55-6.9-0.24-10.15,0.86c0.9-0.49,1.71-0.83,2.34-1.08c4.6-1.78,9.78-1.62,14.5-0.17c2.57,0.8,4.74,2.15,6.56,3.82
					c1.8,0.48,3.49,1.41,4.87,2.65c2.29,2.04,3.83,4.82,4.74,7.75C-488.91,1005.49-488.77,1008.07-489.18,1010.84z"/>
				<g id="XMLID_124_">
					<g id="XMLID_125_">
						<path id="XMLID_126_" fill="none" stroke="#0B2D50" stroke-width="2" stroke-linecap="round" stroke-miterlimit="10" d="
							M-516.83,1019.66c2.41-1.38,4.91-2,8.42-0.72"/>
						<path id="XMLID_127_" fill="none" stroke="#0B2D50" stroke-width="2" stroke-linecap="round" stroke-miterlimit="10" d="
							M-500.32,1019.56c2.06-1.54,5.12-1.7,6.72,0"/>
						<path id="XMLID_128_" fill="none" stroke="#CC454E" stroke-width="2" stroke-linecap="round" stroke-miterlimit="10" d="
							M-502.82,1027.42c0.21,1.09,0.1,3.51-0.42,4.59"/>
						<ellipse id="XMLID_129_" fill="#262D40" cx="-510.96" cy="1026.59" rx="0.99" ry="1.57"/>
						<ellipse id="XMLID_130_" fill="#262D40" cx="-497.96" cy="1025.86" rx="0.99" ry="1.57"/>
					</g>
					<g id="XMLID_131_">
						<path id="XMLID_132_" fill="#CC454E" d="M-504.05,1034.15c0,0-0.19,0.38-0.57,0.89c-0.58,0.78-1.58,1.86-2.94,2.29h-0.01
							c-0.57,0.18-1.19,0.25-1.89,0.12c-2.03-0.36-2.57-2.24-2.66-3.68c-0.02-0.28-0.02-0.54-0.02-0.78
							c0.01-0.58,0.08-0.97,0.08-0.97C-508.81,1033.8-504.05,1034.15-504.05,1034.15z"/>
						<path id="XMLID_133_" fill="#FFFFFF" d="M-504.05,1034.15c0,0-0.19,0.38-0.57,0.89c-1.65-0.02-5.04-0.87-7.51-2.05
							c0.01-0.58,0.08-0.97,0.08-0.97C-508.81,1033.8-504.05,1034.15-504.05,1034.15z"/>
						<path id="XMLID_134_" fill="#E8729B" d="M-507.56,1037.32c-0.57,0.18-1.19,0.25-1.89,0.12c-2.03-0.36-2.57-2.24-2.66-3.68
							c0.98,0.12,1.94,0.5,2.72,1.1C-508.56,1035.49-507.92,1036.35-507.56,1037.32z"/>
					</g>
				</g>
				<g id="XMLID_135_">
					<path id="XMLID_136_" fill="#3D86E0" d="M-526.88,1017.17c0,0-0.11-6.74,2.69-13.44c3.52-8.41,10.69-12,17.65-12.24
						c8.38-0.3,13.63,5.33,13.63,5.33s-2.73-4.82-8.11-6.2c-3.54-0.91-8.87-1.05-13.15,0.69c-4.41,1.79-9.91,6.76-11.9,12.01
						c-1.98,5.25-2.95,13.42-2.95,13.42L-526.88,1017.17z"/>
					<g id="XMLID_137_">
						
							<ellipse id="XMLID_138_" transform="matrix(-0.1034 -0.9946 0.9946 -0.1034 -1602.03 605.6377)" fill="#56C4F9" cx="-528.05" cy="1024.88" rx="9.9" ry="6.54"/>
						
							<ellipse id="XMLID_139_" transform="matrix(-0.1486 -0.9889 0.9889 -0.1486 -1622.7161 654.0945)" fill="#3D86E0" cx="-529.78" cy="1025.59" rx="7.47" ry="4.24"/>
					</g>
					<g id="XMLID_140_">
						<ellipse id="XMLID_141_" fill="#3A92C9" cx="-506.49" cy="1040.36" rx="3.48" ry="2.17"/>
						<path id="XMLID_142_" fill="none" stroke="#3A92C9" stroke-width="2" stroke-linecap="round" stroke-miterlimit="10" d="
							M-523.97,1033.12c0,0,5.11,6.57,14.01,7.25"/>
					</g>
				</g>
			</g>
			<g id="XMLID_143_">
				<g id="XMLID_144_">
					<g id="XMLID_145_">
						<g id="XMLID_146_">
							<path id="XMLID_147_" fill="#F9A07B" d="M-502.67,1097.9l-0.34,8.64c0,0-31.26,9.37-36.42,6.41
								c-2.52-1.45-4.87-9.42-6.63-17.2c-1.84-8.17-3.02-16.13-3.02-16.13l18.33-3.59c0,0,0.01,11.17,0.63,17.63
								c0.22,2.41,0.54,4.16,0.97,4.44C-527.53,1099.18-502.67,1097.9-502.67,1097.9z"/>
							<path id="XMLID_148_" fill="#E06A58" d="M-530.11,1093.66c-3.33,1.08-9.76,2.75-15.94,2.09c-1.84-8.17-3.02-16.13-3.02-16.13
								l18.33-3.59C-530.75,1076.03-530.74,1087.2-530.11,1093.66z"/>
						</g>
						<g id="XMLID_149_">
							<path id="XMLID_150_" fill="#F9A07B" d="M-503.56,1097.99c4.65-0.99,12.52-3.38,15.78-4.21c2.32-0.58,8.36,2.54,9.95,5.49
								c0.7,1.29,1.36,8.57-1.06,7.82c-1.21-0.38-1.01-3.5-1.39-4.78c-0.31-1.04-1.29-2.04-2.79-2.91c1,2.49,0.96,4.67,0.85,7.36
								c-0.02,0.59-0.06,1.22-0.35,1.73c-0.29,0.51-0.92,0.88-1.46,0.65c-0.55-0.23-0.74-0.91-0.86-1.51
								c-0.43-2.08-0.86-4.15-1.03-6.5c0.04,2.31-0.01,4.62-0.15,6.92c-0.11,1.76-0.98,2.73-2.06,2.42
								c-0.48-0.14-0.68-0.58-0.88-1.16c-0.32,1.13-1.14,2.38-2.18,1.9c-0.64-0.29-1.03-2.59-0.92-4.96
								c-2.01,1.25-4.28,1.78-6.9,1.9c-2.35,0.11-4.75-0.33-6.16-1.92C-505.02,1103.75-504.2,1100.06-503.56,1097.99z"/>
							<path id="XMLID_151_" fill="none" stroke="#CC454E" stroke-linecap="round" stroke-miterlimit="10" d="M-488.96,1108.96
								c0.16-1.87-0.01-3.77-0.48-5.57"/>
						</g>
					</g>
					<path id="XMLID_152_" fill="#FFC73C" d="M-532.81,1057.91c-1.33-3.75-6.2-11.41-6.2-11.41s-7.43,3.09-10.07,8.34
						c-4.47,8.89-2.19,34.4-2.19,34.4c6.02,2.52,18.09,2.56,23.23,1.83C-528.04,1091.07-530.14,1065.39-532.81,1057.91z"/>
				</g>
				<path id="XMLID_161_" fill="none" stroke="#F2AE30" stroke-linecap="round" stroke-miterlimit="10" d="M-531.86,1059.47
					c2.03,9.7,3.11,18.75,3.46,27.62"/>
			</g>
		</g>
		<rect id="XMLID_162_" x="-585.91" y="1114.06" fill="#0B2D50" width="213.13" height="5.35"/>
	</g>
</g>
</svg>
