<?xml version="1.0" encoding="utf-8"?>
<!-- Generator: Adobe Illustrator 19.0.0, SVG Export Plug-In . SVG Version: 6.00 Build 0)  -->
<svg version="1.1" id="Layer_1" xmlns="http://www.w3.org/2000/svg" xmlns:xlink="http://www.w3.org/1999/xlink" x="0px" y="0px"
	 viewBox="-553 950 428 150" enable-background="new -553 950 428 150" xml:space="preserve">
<g id="XMLID_27_">
</g>
<g id="XMLID_24_">
</g>
<g>
	<path id="XMLID_592_" fill="#A6CDD1" d="M-253.79,1094.17l-3.34-2.11l-3.83-2.42c-6.2-3.92-14.07-6.13-20.72-5.83l-43.38,1.95
		c0,0-0.98-0.1-2.71-0.28c-12.87-1.34-67.03-6.96-73.26-6.96c-6.55,0-117.4,6.64-133.75,3.53c-7.09-1.34-13.22-2.37-18.22-3.15
		v18.11c58-0.09,299.56-0.39,305.69,1.23L-253.79,1094.17z"/>
	<path id="XMLID_954_" fill="#BADFE8" d="M-452.99,1088.57l213.68,0.89l39.89,0.17l-79.07-37.98l-1.78-0.73
		c-8.06-3.12-17.02-4.03-24.15-2.47l-37.91,12.73l-1.27-0.42l-8.64-2.92c-0.85-0.28-1.68-0.53-2.55-0.72
		c-4.98-1.19-10.16-1.05-14.21,0.44l-30.29,11.18l-0.37,0.13l-9.62,3.57l-28.58,10.55l-8.25,3.05L-452.99,1088.57z"/>
	<path id="XMLID_952_" fill="#D1E7ED" d="M-343.61,1060.76l9.19,5.82l42.48-17.31c0,0,7.7,1.4,13.44,2.38l-1.78-0.73
		c-8.06-3.12-17.02-4.03-24.15-2.47l-37.91,12.73L-343.61,1060.76z"/>
	<path id="XMLID_946_" fill="#D1E7ED" d="M-399.3,1068.74c10.26-2.17,29.19-7.77,36.44-9.99c1.62-0.49,4.88-1.24,8.07-1.63
		c-4.98-1.19-10.16-1.05-14.21,0.44L-399.3,1068.74z"/>
	<path id="XMLID_941_" fill="#F2C271" d="M-405.04,1069.81c1.56-0.23,3.33-0.56,5.25-0.97l-1.43-0.49L-405.04,1069.81z"/>
	<path id="XMLID_939_" fill="#ABD2D8" d="M-389.87,1078.66c12.88,0,22.32-7.3,33.26-12.24l2-0.5l35.15,10.73l30.29-3.08
		c5.6-0.57,11.93,0.23,17.96,2.27l40.15,13.61l-238.2,0.53l12.3-6.86c12.38-4.87,25-9.23,37.17-13.36
		C-414.9,1067.83-400.54,1078.66-389.87,1078.66z"/>
	<path id="XMLID_938_" fill="#D1E7ED" d="M-456.95,1083.12c12.36-4.87,24.99-9.23,37.17-13.36c2.13-0.83,5.95,0.68,10.49,2.68
		c6.03,2.66,13.38,6.21,19.43,6.21c12.88,0,22.31-7.3,33.25-12.23l-29.08,7.25l-13.98-4.8l-0.1-0.03l-1.43-0.49l-12.73-4.37
		c-3.26-1.12-7.05-0.93-9.6,0.49L-456.95,1083.12z"/>
	<path id="XMLID_937_" fill="#A6CDD1" d="M-498.09,1098.79c0,0,364.94-0.63,373.09,1.21l-7.56-4.07l-3.92-2.11l-4.49-2.42
		c-7.27-3.92-16.51-6.13-24.31-5.83l-50.89,1.95c0,0-1.15-0.1-3.18-0.28c-15.1-1.34-78.64-6.96-85.95-6.96
		c-7.68,0-137.44,3.07-156.96,3.53c-1.58,0.04-2.43,0.06-2.43,0.06l-6.66,2.98l-19.16,8.55l-1.68,0.75l-0.8,0.36L-498.09,1098.79z"
		/>
	<path id="XMLID_936_" fill="#D3E9EF" d="M-469.61,1083.88l-5.68,2.98c41.39-1.59,146.51-2.38,146.51-2.38l66.8,3.65
		c0,0,0.53-0.35,1.49-0.89c-12.87-1.34-67.04-6.96-73.27-6.96C-340.83,1080.29-469.61,1083.88-469.61,1083.88z"/>
	<path id="XMLID_935_" fill="#D1E7ED" d="M-493.73,1096.51l29.12-11.12c-0.9-0.58-1.89-1.11-2.92-1.57c-0.01,0-0.03,0-0.04,0
		c-1.32,0.03-2.58,0.35-3.62,0.89l-4.1,2.16L-493.73,1096.51z"/>
	<path id="XMLID_934_" fill="#DFF0F4" d="M-493.06,1096.15l49.96-1.81l73.53-1.88l72.69,3.77l67.25-1.58l43.12,1.26l-3.34-2.11
		l-42.83-1.98l-65.98,1.25l-73.24-3.73c0,0-71.03,1.86-72.56,1.86c-1.08,0-29.89,2.61-47.16,4.19L-493.06,1096.15z"/>
	<g id="XMLID_905_">
		<path id="XMLID_3082_" fill="#6197EC" d="M-529.11,1093.54c0.91-0.32,1.85-0.07,2.77-0.14c0.06,0.03,0.08,0.07,0.06,0.1
			c-0.02,0.03-0.04,0.05-0.06,0.05C-527.26,1093.55-528.19,1093.54-529.11,1093.54z"/>
		<path id="XMLID_3081_" fill="#4C8AEA" d="M-526.34,1093.55c0-0.05,0-0.1,0-0.15c0.61,0.07,1.25-0.17,1.84,0.15
			C-525.11,1093.55-525.72,1093.55-526.34,1093.55z"/>
		<path id="XMLID_3164_" fill="#4C92F7" d="M-522.46,964.82c3.51-1.73,7.02-3.46,10.54-5.18c3.21-1.57,6.44-3.13,9.65-4.69
			c0.16-0.08,0.29-0.21,0.44-0.31c0.06,0,0.12,0,0.19,0c-0.85,3.15-1.62,6.31-2.14,9.53c-0.28,1.72-0.54,3.45-0.81,5.17
			c-0.44-0.4-0.95-0.51-1.53-0.5c-1.79,0.02-3.58,0.01-5.38,0.01c-0.15,0-0.31,0-0.46,0.01c-0.31,0.03-0.64,0.06-0.66,0.49
			c-0.02,0.46,0.3,0.57,0.67,0.58c1.51,0.04,3.03-0.01,4.54,0.03c0.92,0.02,1.85-0.13,2.76,0.09c-0.21,1.66-0.51,3.3-0.55,4.98
			c0,0.2-0.09,0.41-0.14,0.61c-0.41-0.37-0.9-0.48-1.45-0.48c-3.31,0.01-6.61,0-9.92,0.01c-0.36,0-0.99-0.17-0.97,0.36
			c0.01,0.48,0.64,0.34,1.01,0.34c3.43,0.01,6.86,0.01,10.29,0.01c0.34,0,0.68-0.06,1,0.11c-0.17,1.87-0.34,3.74-0.5,5.61
			c-0.17-0.04-0.31-0.13-0.46-0.21c-0.38-0.19-0.79-0.12-1.19-0.12c-4.54,0-9.08,0-13.63-0.01c-0.45,0-0.94,0.09-1.34-0.23
			c-0.25-0.35-0.24-0.76-0.24-1.16c-0.01-4.61-0.01-9.21,0-13.82C-522.74,965.62-522.74,965.19-522.46,964.82z"/>
		<path id="XMLID_3134_" fill="#67AAF8" d="M-522.46,964.82c0,5.4,0.01,10.79,0.01,16.19c-0.32,0.33-0.74,0.27-1.13,0.28
			c-0.96,0.02-1.92-0.01-2.87,0.02c-0.34,0.01-0.89-0.1-0.88,0.39c0,0.41,0.53,0.32,0.85,0.33c0.99,0.03,1.98,0,2.97,0.02
			c0.4,0.01,0.81-0.03,1.15,0.26c0.41,1.16,0.23,2.35,0.13,3.53c-0.04,0.48-0.45,0.59-0.88,0.64c-0.54,0.06-1.1-0.12-1.61,0.16
			c-0.36,0.6,0.12,0.58,0.47,0.62c0.62,0.08,1.28-0.13,1.87,0.23c0.07,0.09,0.13,0.19,0.16,0.29c0.12,0.46,0.09,0.92,0.09,1.39
			c0,34.18,0,68.36,0,102.54c0,0.58,0.12,1.19-0.3,1.7c-0.68,0.1-1.38-0.1-2.05,0.15c-0.62-0.15-1.26-0.03-1.88-0.07
			c-0.91,0.04-1.82-0.07-2.73,0.06c-2.86,0.1-5.71-0.07-8.56-0.17c-0.25-0.33-0.11-0.65,0.01-0.97c2.38-5.98,3.41-12.27,4.13-18.61
			c0.53-4.64,0.81-9.29,0.99-13.96c0.29-7.49,0.16-14.97,0.1-22.46c-0.03-4.48-0.25-8.96-0.54-13.43
			c-0.42-6.66-0.83-13.32-1.41-19.98c-0.4-4.5-0.82-8.99-1.24-13.49c0.49-1.13,0.01-2.26-0.09-3.37c-0.34-3.56-0.8-7.12-1.22-10.67
			c-0.15-1.23-0.32-2.45-0.49-3.67c-0.06-0.39-0.11-0.7,0.35-0.92C-532.19,969.52-527.33,967.16-522.46,964.82z"/>
		<path id="XMLID_3133_" fill="#4C92F7" d="M-522.44,1093.4c0-35.3,0-70.59,0-105.89c0.35-0.34,0.8-0.3,1.22-0.3
			c4.56-0.01,9.11-0.01,13.67,0c0.42,0,0.87-0.05,1.22,0.29c-0.05,1.35-0.09,2.7-0.14,4.05c0.24,0.46,0.03,0.7-0.4,0.82
			c-0.39,0.11-0.8,0.08-1.2,0.08c-3.96,0-7.92-0.01-11.88,0.01c-0.43,0-1.17-0.17-1.18,0.34c-0.01,0.53,0.73,0.35,1.15,0.35
			c3.96,0.02,7.92,0.01,11.88,0.01c1.57,0,1.74,0.19,1.73,1.78c0,0.65-0.13,1.29-0.18,1.94c-0.09,1.37-0.24,1.5-1.64,1.51
			c-1.73,0.01-3.46,0-5.2,0.01c-0.38,0-0.79-0.08-1.16,0.27c0.35,0.31,0.72,0.24,1.08,0.24c1.82,0.01,3.65-0.01,5.47,0.01
			c1.21,0.02,1.49,0.32,1.41,1.51c-0.05,0.77-0.15,1.54-0.17,2.31c-0.03,0.98-0.26,1.2-1.34,1.21c-2.88,0.03-5.75,0.01-8.63,0.01
			c-0.34,0-0.68-0.01-1.02,0.05c-0.23,0.05-0.4,0.15-0.42,0.42c-0.01,0.29,0.12,0.47,0.4,0.54c0.33,0.08,0.68,0.07,1.02,0.07
			c2.72,0,5.44,0,8.16,0c1.7,0,1.85,0.17,1.83,1.86c0,0.34-0.01,0.68-0.08,1.02c-0.04,0.24-0.12,0.48-0.14,0.73
			c-0.1,1.33-0.2,1.43-1.56,1.44c-3.34,0.01-6.68-0.01-10.01,0.02c-0.46,0-1.25-0.28-1.26,0.49c-0.01,0.85,0.83,0.55,1.31,0.55
			c3.24,0.03,6.49,0.01,9.74,0.02c1.7,0,1.79,0.1,1.8,1.77c0,0.31,0,0.62,0.02,0.93c0.05,2.08-0.03,2.16-2.06,2.17
			c-1.82,0-3.64,0-5.46,0c-0.28,0-0.56,0-0.83,0.04c-0.27,0.04-0.46,0.16-0.47,0.47c0,0.29,0.14,0.46,0.42,0.51
			c0.31,0.06,0.61,0.05,0.92,0.05c2.01,0,4.01-0.02,6.02,0.01c1.24,0.02,1.48,0.23,1.45,1.48c-0.02,1.04,0.23,2.1-0.22,3.11
			c-0.43,0.34-0.94,0.26-1.43,0.26c-2.66,0.01-5.32,0-7.97,0c-0.25,0-0.5-0.01-0.74,0.02c-0.35,0.04-0.71,0.07-0.69,0.56
			c0.02,0.43,0.35,0.46,0.66,0.49c0.43,0.04,0.86,0.02,1.3,0.02c2.5,0,5.01,0,7.51,0c0.46,0,0.93-0.05,1.34,0.24
			c0.46,1.1,0.27,2.25,0.16,3.37c-0.06,0.59-0.6,0.65-1.07,0.67c-1.2,0.04-2.41,0.02-3.61,0.02c-1.95,0-3.89,0-5.84,0
			c-0.31,0-0.62-0.01-0.92,0.05c-0.28,0.06-0.44,0.2-0.45,0.5c0,0.3,0.17,0.44,0.45,0.48c0.31,0.05,0.62,0.04,0.92,0.04
			c2.97,0,5.93,0,8.9,0c0.49,0,1-0.07,1.44,0.23c0.46,1.13,0.26,2.31,0.15,3.46c-0.06,0.58-0.65,0.59-1.11,0.6
			c-1.54,0.04-3.09,0.01-4.63,0.02c-0.93,0-1.86-0.03-2.78,0.01c-0.49,0.03-1.27-0.27-1.3,0.61c-0.03,0.91,0.77,0.63,1.25,0.63
			c2.41,0.03,4.82,0.01,7.23,0.02c0.58,0,1.2-0.03,1.51,0.64c0.25,0.94,0.13,1.91,0.11,2.86c-0.01,0.59-0.34,0.9-0.93,0.95
			c-0.37,0.03-0.74,0.03-1.11,0.03c-3.46,0-6.93,0-10.39,0c-0.25,0-0.5-0.02-0.74,0.01c-0.4,0.05-0.98-0.11-0.99,0.53
			c-0.01,0.67,0.59,0.52,0.98,0.53c3.68,0.02,7.36,0.01,11.04,0.01c2.08,0,2.08,0,2.19,2.06c0.02,0.37,0.09,0.74,0.12,1.11
			c0.1,1.16-0.16,1.48-1.31,1.5c-2.04,0.04-4.08,0.01-6.12,0.01c-0.62,0-1.24-0.02-1.86,0.01c-0.4,0.02-0.98-0.1-0.96,0.57
			c0.02,0.59,0.56,0.49,0.93,0.49c2.26,0.02,4.52,0.01,6.77,0.01c0.56,0,1.11-0.02,1.67,0.03c0.54,0.05,0.87,0.34,0.89,0.88
			c0.03,0.9,0.18,1.79,0.21,2.68c0.03,1.17-0.21,1.43-1.39,1.44c-3.59,0.02-7.18,0.01-10.76,0.01c-0.43,0-0.87-0.02-1.3,0.03
			c-0.3,0.04-0.55,0.12-0.56,0.49c-0.01,0.36,0.22,0.48,0.53,0.52c0.34,0.05,0.68,0.04,1.02,0.04c3.53,0,7.05,0,10.58,0
			c1.77,0,2.03,0.26,2.08,2.03c0.01,0.34,0.02,0.68,0,1.02c-0.11,1.33-0.21,1.43-1.59,1.44c-1.67,0.01-3.34,0-5.01,0
			c-0.28,0-0.56,0-0.83,0.04c-0.38,0.05-0.51,0.29-0.51,0.65c0.01,0.33,0.18,0.51,0.5,0.55c0.28,0.04,0.55,0.04,0.83,0.04
			c1.73,0,3.46,0,5.19,0c0.46,0,0.93-0.05,1.34,0.24c0.41,1.09,0.35,2.24,0.39,3.37c0.02,0.51-0.33,0.77-0.83,0.83
			c-0.37,0.04-0.74,0.04-1.11,0.04c-3.15,0-6.31,0-9.46,0c-0.34,0-0.68-0.01-1.02,0.05c-0.28,0.05-0.44,0.21-0.44,0.5
			c-0.01,0.31,0.17,0.44,0.44,0.49c0.31,0.05,0.62,0.04,0.93,0.04c3.37,0,6.74-0.01,10.11,0c1.44,0,1.59,0.16,1.61,1.6
			c0.01,0.62,0.09,1.23,0.14,1.85c0.08,1.05-0.18,1.36-1.23,1.39c-1.45,0.04-2.91,0.01-4.36,0.01c-0.34,0-0.68-0.02-1.02,0.01
			c-0.39,0.03-0.89-0.03-0.86,0.57c0.02,0.54,0.49,0.48,0.84,0.49c1.52,0.03,3.03,0.01,4.55,0.01c2.14,0,2.14,0,2.41,2.11
			c0.28,2.17,0.1,2.37-2.05,2.37c-3.46,0-6.93,0-10.39,0c-0.34,0-0.68-0.01-1.02,0.04c-0.32,0.05-0.49,0.23-0.5,0.56
			c-0.01,0.37,0.15,0.58,0.53,0.63c0.34,0.04,0.68,0.04,1.02,0.04c3.68,0,7.36-0.01,11.04,0c1.54,0,1.75,0.22,1.84,1.76
			c0.02,0.34,0.07,0.68,0.1,1.02c0.13,1.2-0.12,1.5-1.35,1.51c-1.79,0.03-3.59,0-5.38,0.01c-0.31,0-0.62-0.01-0.92,0.07
			c-0.24,0.07-0.35,0.23-0.35,0.48s0.12,0.41,0.36,0.47c0.3,0.07,0.61,0.07,0.92,0.07c1.86,0,3.71-0.02,5.57,0.01
			c1.21,0.02,1.48,0.27,1.6,1.44c0.08,0.74,0.19,1.47,0.26,2.21c0.11,1.09-0.09,1.35-1.18,1.37c-2.85,0.03-5.69,0.01-8.54,0.01
			c-0.31,0-0.62-0.01-0.93,0.02c-0.31,0.03-0.64,0.05-0.67,0.48c-0.03,0.48,0.32,0.54,0.67,0.57c0.31,0.03,0.62,0.02,0.93,0.02
			c2.91,0,5.81-0.01,8.72,0.01c1.18,0.01,1.34,0.14,1.55,1.26c0.27,1.43,0.53,2.86,0.92,4.26c0.08,0.3,0.16,0.6,0.02,0.91
			c0.1,0.32,0.2,0.64,0.34,1.1C-508.88,1093.54-515.66,1093.61-522.44,1093.4z"/>
		<path id="XMLID_3130_" fill="#2B68DC" d="M-507.23,1028.76c-3.7,0-7.41-0.01-11.11,0c-0.59,0-0.97-0.02-0.98-0.81
			c-0.01-0.81,0.34-0.89,1-0.89c3.39,0.02,6.79-0.01,10.18,0.03c0.75,0.01,0.97-0.22,0.92-0.95c-0.06-0.92-0.01-1.85-0.01-2.78
			c-0.38-0.56-0.37-1.13,0-1.69c0-1.14-0.03-2.29,0.02-3.43c0.03-0.65-0.19-0.85-0.84-0.84c-2.38,0.03-4.75,0-7.13,0.02
			c-0.58,0-0.97-0.01-0.98-0.8c-0.01-0.8,0.33-0.9,0.99-0.89c2.28,0.03,4.57-0.03,6.85,0.03c0.91,0.03,1.24-0.26,1.1-1.14
			c-0.04-0.24,0-0.49,0-0.74c0.13-0.89,0.12-1.76-0.03-2.66c-0.19-1.1,0.18-2.19,0.21-3.29c0-0.59-0.04-1.18,0.01-1.76
			c0.05-0.65-0.19-0.85-0.84-0.85c-3.22,0.03-6.43,0.01-9.65,0.02c-0.58,0-1.02-0.01-1.04-0.8c-0.01-0.7,0.21-0.9,0.9-0.89
			c3.19,0.03,6.37-0.01,9.56,0.03c0.85,0.01,1.2-0.22,1.07-1.08c-0.12-0.81,0.12-1.6,0.18-2.39c0.06-0.75-0.16-1.03-0.96-1.01
			c-2.13,0.05-4.27,0.02-6.4,0.02c-0.4,0-0.82,0.07-0.82-0.57c0.01-0.65,0.45-0.55,0.84-0.55c2.17,0,4.33-0.02,6.5,0.01
			c0.63,0.01,0.87-0.16,0.86-0.83c-0.01-0.95,0.08-1.91,0.17-2.86c0.08-0.77-0.19-1-0.97-1c-4.27,0.04-8.54,0.02-12.81,0.02
			c-0.28,0-0.56,0.01-0.83-0.03c-0.34-0.05-0.42-0.31-0.42-0.62s0.08-0.57,0.43-0.62c0.27-0.04,0.56-0.03,0.83-0.03
			c4.36,0,8.72,0,13.09,0c0.44,0,0.91,0.07,0.88-0.61c2.01-0.47,4.01-0.95,6.12-1.44c-0.14,1.32-0.27,2.57-0.41,3.82
			c-0.76,6.82-1.34,13.66-1.86,20.51c-1.07,14.01-1.75,28.04-1.69,42.09c0.03,7.37,0.26,14.72,1.03,22.05
			c0.47,4.43,1.09,8.83,2.33,13.12c0.18,0.62,0.03,0.83-0.6,0.76c-0.27-0.03-0.56,0.01-0.83,0.01c-0.69-1.73-0.95-3.57-1.26-5.38
			c-0.11-0.68-0.35-0.78-0.93-0.78c-3.34,0.02-6.68,0-10.02,0.02c-0.64,0-1.02-0.05-1.01-0.88c0.01-0.79,0.38-0.82,0.98-0.81
			c3.22,0.02,6.43-0.01,9.65,0.02c0.81,0.01,1.03-0.2,0.83-1.02c-0.19-0.77-0.24-1.58-0.27-2.38c-0.02-0.75-0.24-1.11-1.09-1.09
			c-2.19,0.05-4.39,0-6.59,0.03c-0.59,0.01-0.9-0.1-0.89-0.8c0-0.68,0.19-0.92,0.89-0.9c2.13,0.04,4.27-0.03,6.4,0.03
			c0.88,0.02,0.99-0.38,0.87-1.06c-0.05-0.3-0.14-0.6-0.15-0.91c-0.08-1.77-0.08-1.77-1.88-1.77c-3.9,0-7.79-0.02-11.69,0.02
			c-0.74,0.01-0.94-0.21-0.95-0.94c0-0.74,0.22-0.94,0.95-0.94c4.08,0.03,8.16,0,12.24,0.03c0.7,0,1.04-0.15,0.95-0.92
			c-0.1-0.82-0.16-1.65-0.19-2.48c-0.02-0.58-0.41-0.51-0.78-0.52c-2.04,0-4.08-0.02-6.12,0.01c-0.66,0.01-0.92-0.14-0.93-0.87
			c-0.01-0.77,0.34-0.84,0.96-0.83c1.92,0.03,3.84-0.03,5.75,0.03c0.83,0.03,1.07-0.31,0.91-1.03c-0.17-0.79-0.21-1.6-0.16-2.39
			c0.05-0.71-0.22-0.89-0.9-0.88c-3.8,0.03-7.61,0-11.41,0.02c-0.59,0-0.9-0.1-0.89-0.8c0-0.68,0.19-0.91,0.89-0.9
			c3.71,0.03,7.42-0.01,11.13,0.04c0.86,0.01,1.13-0.29,0.98-1.06c-0.19-0.95-0.18-1.9-0.17-2.86c-0.39-0.51-0.32-1.09-0.2-1.65
			c0.1-0.45,0.17-0.88,0.02-1.32c-0.01-0.62,0-1.24-0.05-1.85c-0.06-0.65-0.33-0.97-1.11-0.96c-4.08,0.05-8.16,0.01-12.24,0.04
			c-0.65,0-0.95-0.12-0.93-0.86c0.02-0.65,0.21-0.85,0.86-0.84c4.05,0.02,8.1-0.02,12.15,0.04c0.99,0.02,1.25-0.3,1.14-1.2
			c-0.11-0.92-0.24-1.83-0.2-2.76c0.03-0.66-0.49-0.51-0.86-0.51c-2.87-0.01-5.75-0.02-8.62,0.01c-0.66,0.01-0.95-0.13-0.93-0.86
			c0.02-0.65,0.21-0.85,0.86-0.84c2.81,0.03,5.63,0.01,8.44,0.01c1.15,0,1.32-0.15,1.07-1.28c-0.14-0.65-0.15-1.29-0.11-1.93
			c0.04-0.71-0.23-0.88-0.91-0.88c-4.17,0.03-8.35,0-12.52,0.03c-0.68,0-0.92-0.17-0.91-0.88c0.01-0.67,0.25-0.82,0.87-0.82
			c4.11,0.02,8.22-0.02,12.33,0.03c0.89,0.01,1.21-0.23,1.12-1.13c-0.08-0.8-0.02-1.61-0.01-2.41c-0.31-0.73-0.25-1.46-0.16-2.23
			C-507.05,1031.24-507.03,1030-507.23,1028.76z"/>
		<path id="XMLID_3129_" fill="#3C7CE4" d="M-535.61,990.49c0.33,0.04,0.34,0.28,0.36,0.54c0.31,3.55,0.6,7.11,0.94,10.66
			c0.38,4.01,0.69,8.03,0.95,12.06c0.19,2.95,0.38,5.9,0.55,8.85c0.15,2.59,0.22,5.17,0.37,7.76c0.55,9.3,0.36,18.6,0.3,27.9
			c-0.03,4.06-0.36,8.12-0.73,12.17c-0.5,5.39-1.19,10.76-2.56,16.01c-0.56,2.15-1.18,4.28-2.08,6.32
			c-0.09,0.19-0.11,0.41-0.16,0.62c-1.6,0-3.2,0.01-4.81,0.01c-0.04-0.03-0.06-0.06-0.05-0.09c0.01-0.03,0.02-0.05,0.04-0.05
			c2.01-4.14,3.18-8.55,4.08-13.04c1.48-7.42,2.04-14.93,2.3-22.47c0.28-8.26,0.01-16.51-0.49-24.76
			c-0.68-11.2-1.89-22.35-3.5-33.45c-0.28-1.89-0.59-3.78-0.91-5.67c-0.08-0.48-0.04-0.77,0.47-1
			C-538.88,992.09-537.25,991.27-535.61,990.49z"/>
		<path id="XMLID_3117_" fill="#4C92F7" d="M-525.22,986.4c0.34-0.34,0.76-0.17,1.14-0.18c1.64-0.02,1.64-0.01,1.64-1.69
			c0-0.74,0-1.48,0-2.22c0.32-0.33,0.74-0.26,1.13-0.26c4.74-0.01,9.48-0.01,14.22,0c0.39,0,0.81-0.06,1.14,0.25
			c-0.11,1.5-0.21,2.99-0.32,4.49c-3.46-0.21-6.92-0.05-10.38-0.1c-1.92-0.03-3.83,0.03-5.75-0.03
			C-523.35,986.61-524.33,986.93-525.22,986.4z"/>
		<path id="XMLID_3106_" fill="#2B68DC" d="M-522.44,986.4c5.09,0,10.19-0.01,15.28,0c0.34,0,0.78-0.15,0.89,0.4
			c-0.02,0.24-0.04,0.47-0.06,0.71c-5.37,0-10.74,0.01-16.11,0.01l0.01-0.01C-522.74,987.13-522.73,986.77-522.44,986.4z"/>
		<path id="XMLID_3103_" fill="#2C69DD" d="M-505.39,976c-0.27,0.18-0.58,0.18-0.89,0.18c-3.68,0-7.36,0-11.03,0
			c-0.43,0-0.87,0.09-0.88-0.61c-0.02-0.73,0.42-0.69,0.9-0.68c3.71,0,7.42,0.01,11.13-0.01c0.59,0,0.88,0.16,0.82,0.77
			C-505.36,975.76-505.37,975.88-505.39,976z"/>
		<path id="XMLID_3102_" fill="#2C69DD" d="M-505.94,981.21c0.02,0.13,0.03,0.26,0.05,0.39c-0.02,0.17-0.04,0.34-0.06,0.52
			c-0.26,0.16-0.54,0.09-0.81,0.09c-4.94,0-9.89,0-14.83,0c-0.22,0-0.43,0.02-0.65-0.01c-0.31-0.05-0.39-0.29-0.39-0.55
			c0-0.26,0.09-0.5,0.4-0.54c0.15-0.02,0.31-0.01,0.46-0.01c5.1,0,10.2,0,15.29,0C-506.29,981.11-506.1,981.07-505.94,981.21z"/>
		<path id="XMLID_3101_" fill="#2B68DC" d="M-504.65,970.05c-0.11,0.05-0.22,0.15-0.33,0.15c-2.5,0.02-5.01,0.03-7.51,0.03
			c-0.67,0-0.45-0.54-0.47-0.9c-0.03-0.37-0.07-0.77,0.51-0.77c2.44,0.01,4.89,0.01,7.33,0c0.6,0,0.47,0.44,0.53,0.77
			C-504.62,969.58-504.64,969.81-504.65,970.05z"/>
		<path id="XMLID_3100_" fill="#3F7FE6" d="M-505.94,981.21c-5.23-0.01-10.45-0.01-15.68-0.01c-0.34,0-0.81-0.14-0.81,0.46
			c0,0.6,0.47,0.46,0.81,0.46c5.23,0,10.45,0,15.68,0c0,0.06-0.01,0.12-0.01,0.19c-5.5,0-10.99,0-16.49,0.01
			c-1.51,0-3.02-0.01-4.53-0.01c-0.49,0-0.86-0.08-0.84-0.69c0.02-0.58,0.41-0.6,0.84-0.6c1.51,0,3.02,0,4.53-0.01
			c5.16,0,10.31,0,15.47,0.01C-506.63,981.02-506.23,980.85-505.94,981.21z"/>
		<path id="XMLID_3021_" fill="#3D7CE5" d="M-522.44,986.4c0,0.37,0.01,0.73,0.01,1.1c-0.58,0-1.16-0.05-1.73,0.02
			c-0.91,0.11-1.22-0.26-1.06-1.12C-524.3,986.4-523.37,986.4-522.44,986.4z"/>
		<path id="XMLID_3020_" fill="#2B68DC" d="M-507.04,1007.94c0,1.69,0.01,3.38,0,5.08c0,0.3,0.1,0.62-0.17,0.87
			c-0.08-0.76,0.33-1.74-0.18-2.23c-0.54-0.52-1.53-0.17-2.32-0.17c-3.18-0.02-6.36-0.02-9.54,0c-0.64,0-1.02-0.05-1.01-0.88
			c0.01-0.78,0.37-0.82,0.97-0.82c3.61,0.02,7.22-0.02,10.83,0.03c0.91,0.01,1.42-0.15,1.24-1.19
			C-507.25,1008.39-507.26,1008.13-507.04,1007.94z"/>
		<path id="XMLID_3019_" fill="#2B68DD" d="M-507.23,1028.76c0.01-0.03,0-0.07,0.02-0.09c0.03-0.04,0.07-0.06,0.11-0.09
			c0.02,0.2,0.06,0.4,0.06,0.61c0,1.84,0,3.68,0,5.52c-0.25-0.41-0.65-0.39-1.06-0.39c-2.69,0.01-5.38-0.01-8.06,0.02
			c-0.71,0.01-1.13-0.04-1.12-0.96c0.01-0.88,0.41-0.91,1.08-0.91c2.72,0.02,5.44-0.01,8.16,0.02c0.65,0.01,0.87-0.2,0.84-0.85
			C-507.25,1030.68-507.22,1029.72-507.23,1028.76z"/>
		<path id="XMLID_3018_" fill="#2B68DC" d="M-507.23,1021.68c0,0.56,0,1.13,0,1.69c-3.42,0-6.85-0.02-10.27,0.01
			c-0.7,0.01-0.89-0.21-0.89-0.9s0.29-0.81,0.89-0.8C-514.07,1021.69-510.65,1021.68-507.23,1021.68z"/>
		<path id="XMLID_3017_" fill="#2C68DD" d="M-506.47,1054.57c0.38,0.97,0.08,1.98,0.18,2.97c-2.44,0-4.87-0.03-7.31,0.01
			c-0.7,0.01-0.9-0.22-0.89-0.9c0.01-0.67,0.11-1,0.9-0.98c2,0.06,4.01-0.03,6.01,0.04
			C-506.66,1055.74-506.34,1055.44-506.47,1054.57z"/>
	</g>
	<g id="XMLID_1_">
		<path id="XMLID_20_" fill="#6197EC" d="M-504.59,1094.43c0.91-0.32,1.85-0.07,2.77-0.14c0.06,0.03,0.08,0.07,0.06,0.1
			c-0.02,0.03-0.04,0.05-0.06,0.05C-502.74,1094.44-503.67,1094.43-504.59,1094.43z"/>
		<path id="XMLID_19_" fill="#4C8AEA" d="M-501.82,1094.44c0-0.05,0-0.1,0-0.15c0.61,0.07,1.25-0.17,1.84,0.15
			C-500.59,1094.44-501.2,1094.44-501.82,1094.44z"/>
		<path id="XMLID_18_" fill="#4C92F7" d="M-497.94,965.71c3.51-1.73,7.02-3.46,10.54-5.18c3.21-1.57,6.44-3.13,9.65-4.69
			c0.16-0.08,0.29-0.21,0.44-0.31c0.06,0,0.12,0,0.19,0c-0.85,3.15-1.62,6.31-2.14,9.53c-0.28,1.72-0.54,3.45-0.81,5.17
			c-0.44-0.4-0.95-0.51-1.53-0.5c-1.79,0.02-3.58,0.01-5.38,0.01c-0.15,0-0.31,0-0.46,0.01c-0.31,0.03-0.64,0.06-0.66,0.49
			c-0.02,0.46,0.3,0.57,0.67,0.58c1.51,0.04,3.03-0.01,4.54,0.03c0.92,0.02,1.85-0.13,2.76,0.09c-0.21,1.66-0.51,3.3-0.55,4.98
			c0,0.2-0.09,0.41-0.14,0.61c-0.41-0.37-0.9-0.48-1.45-0.48c-3.31,0.01-6.61,0-9.92,0.01c-0.36,0-0.99-0.17-0.97,0.36
			c0.01,0.48,0.64,0.34,1.01,0.34c3.43,0.01,6.86,0.01,10.29,0.01c0.34,0,0.68-0.06,1,0.11c-0.17,1.87-0.34,3.74-0.5,5.61
			c-0.17-0.04-0.31-0.13-0.46-0.21c-0.38-0.19-0.79-0.12-1.19-0.12c-4.54,0-9.08,0-13.63-0.01c-0.45,0-0.94,0.09-1.34-0.23
			c-0.25-0.35-0.24-0.76-0.24-1.16c-0.01-4.61-0.01-9.21,0-13.82C-498.22,966.51-498.22,966.08-497.94,965.71z"/>
		<path id="XMLID_17_" fill="#67AAF8" d="M-497.94,965.71c0,5.4,0.01,10.79,0.01,16.19c-0.32,0.33-0.74,0.27-1.13,0.28
			c-0.96,0.02-1.92-0.01-2.87,0.02c-0.34,0.01-0.89-0.1-0.88,0.39c0,0.41,0.53,0.32,0.85,0.33c0.99,0.03,1.98,0,2.97,0.02
			c0.4,0.01,0.81-0.03,1.15,0.26c0.41,1.16,0.23,2.35,0.13,3.53c-0.04,0.48-0.45,0.59-0.88,0.64c-0.54,0.06-1.1-0.12-1.61,0.16
			c-0.36,0.6,0.12,0.58,0.47,0.62c0.62,0.08,1.28-0.13,1.87,0.23c0.07,0.09,0.13,0.19,0.16,0.29c0.12,0.46,0.09,0.92,0.09,1.39
			c0,34.18,0,68.36,0,102.54c0,0.58,0.12,1.19-0.3,1.7c-0.68,0.1-1.38-0.1-2.05,0.15c-0.62-0.15-1.26-0.03-1.88-0.07
			c-0.91,0.04-1.82-0.07-2.73,0.06c-2.86,0.1-5.71-0.07-8.56-0.17c-0.25-0.33-0.11-0.65,0.01-0.97c2.38-5.98,3.41-12.27,4.13-18.61
			c0.53-4.64,0.81-9.29,0.99-13.96c0.29-7.49,0.16-14.97,0.1-22.46c-0.03-4.48-0.25-8.96-0.54-13.43
			c-0.42-6.66-0.83-13.32-1.41-19.98c-0.4-4.5-0.82-8.99-1.24-13.49c0.49-1.13,0.01-2.26-0.09-3.37c-0.34-3.56-0.8-7.12-1.22-10.67
			c-0.15-1.23-0.32-2.45-0.49-3.67c-0.06-0.39-0.11-0.7,0.35-0.92C-507.67,970.41-502.81,968.05-497.94,965.71z"/>
		<path id="XMLID_16_" fill="#4C92F7" d="M-497.92,1094.29c0-35.3,0-70.59,0-105.89c0.35-0.34,0.8-0.3,1.22-0.3
			c4.56-0.01,9.11-0.01,13.67,0c0.42,0,0.87-0.05,1.22,0.29c-0.05,1.35-0.09,2.7-0.14,4.05c0.24,0.46,0.03,0.7-0.4,0.82
			c-0.39,0.11-0.8,0.08-1.2,0.08c-3.96,0-7.92-0.01-11.88,0.01c-0.43,0-1.17-0.17-1.18,0.34c-0.01,0.53,0.73,0.35,1.15,0.35
			c3.96,0.02,7.92,0.01,11.88,0.01c1.57,0,1.74,0.19,1.73,1.78c0,0.65-0.13,1.29-0.18,1.94c-0.09,1.37-0.24,1.5-1.64,1.51
			c-1.73,0.01-3.46,0-5.2,0.01c-0.38,0-0.79-0.08-1.16,0.27c0.35,0.31,0.72,0.24,1.08,0.24c1.82,0.01,3.65-0.01,5.47,0.01
			c1.21,0.02,1.49,0.32,1.41,1.51c-0.05,0.77-0.15,1.54-0.17,2.31c-0.03,0.98-0.26,1.2-1.34,1.21c-2.88,0.03-5.75,0.01-8.63,0.01
			c-0.34,0-0.68-0.01-1.02,0.05c-0.23,0.05-0.4,0.15-0.42,0.42c-0.01,0.29,0.12,0.47,0.4,0.54c0.33,0.08,0.68,0.07,1.02,0.07
			c2.72,0,5.44,0,8.16,0c1.7,0,1.85,0.17,1.83,1.86c0,0.34-0.01,0.68-0.08,1.02c-0.04,0.24-0.12,0.48-0.14,0.73
			c-0.1,1.33-0.2,1.43-1.56,1.44c-3.34,0.01-6.68-0.01-10.01,0.02c-0.46,0-1.25-0.28-1.26,0.49c-0.01,0.85,0.83,0.55,1.31,0.55
			c3.24,0.03,6.49,0.01,9.74,0.02c1.7,0,1.79,0.1,1.8,1.77c0,0.31,0,0.62,0.02,0.93c0.05,2.08-0.03,2.16-2.06,2.17
			c-1.82,0-3.64,0-5.46,0c-0.28,0-0.56,0-0.83,0.04s-0.46,0.16-0.47,0.47c0,0.29,0.14,0.46,0.42,0.51c0.31,0.06,0.61,0.05,0.92,0.05
			c2.01,0,4.01-0.02,6.02,0.01c1.24,0.02,1.48,0.23,1.45,1.48c-0.02,1.04,0.23,2.1-0.22,3.11c-0.43,0.34-0.94,0.26-1.43,0.26
			c-2.66,0.01-5.32,0-7.97,0c-0.25,0-0.5-0.01-0.74,0.02c-0.35,0.04-0.71,0.07-0.69,0.56c0.02,0.43,0.35,0.46,0.66,0.49
			c0.43,0.04,0.86,0.02,1.3,0.02c2.5,0,5.01,0,7.51,0c0.46,0,0.93-0.05,1.34,0.24c0.46,1.1,0.27,2.25,0.16,3.37
			c-0.06,0.59-0.6,0.65-1.07,0.67c-1.2,0.04-2.41,0.02-3.61,0.02c-1.95,0-3.89,0-5.84,0c-0.31,0-0.62-0.01-0.92,0.05
			c-0.28,0.06-0.44,0.2-0.45,0.5c0,0.3,0.17,0.44,0.45,0.48c0.31,0.05,0.62,0.04,0.92,0.04c2.97,0,5.93,0,8.9,0
			c0.49,0,1-0.07,1.44,0.23c0.46,1.13,0.26,2.31,0.15,3.46c-0.06,0.58-0.65,0.59-1.11,0.6c-1.54,0.04-3.09,0.01-4.63,0.02
			c-0.93,0-1.86-0.03-2.78,0.01c-0.49,0.03-1.27-0.27-1.3,0.61c-0.03,0.91,0.77,0.63,1.25,0.63c2.41,0.03,4.82,0.01,7.23,0.02
			c0.58,0,1.2-0.03,1.51,0.64c0.25,0.94,0.13,1.91,0.11,2.86c-0.01,0.59-0.34,0.9-0.93,0.95c-0.37,0.03-0.74,0.03-1.11,0.03
			c-3.46,0-6.93,0-10.39,0c-0.25,0-0.5-0.02-0.74,0.01c-0.4,0.05-0.98-0.11-0.99,0.53c-0.01,0.67,0.59,0.52,0.98,0.53
			c3.68,0.02,7.36,0.01,11.04,0.01c2.08,0,2.08,0,2.19,2.06c0.02,0.37,0.09,0.74,0.12,1.11c0.1,1.16-0.16,1.48-1.31,1.5
			c-2.04,0.04-4.08,0.01-6.12,0.01c-0.62,0-1.24-0.02-1.86,0.01c-0.4,0.02-0.98-0.1-0.96,0.57c0.02,0.59,0.56,0.49,0.93,0.49
			c2.26,0.02,4.52,0.01,6.77,0.01c0.56,0,1.11-0.02,1.67,0.03c0.54,0.05,0.87,0.34,0.89,0.88c0.03,0.9,0.18,1.79,0.21,2.68
			c0.03,1.17-0.21,1.43-1.39,1.44c-3.59,0.02-7.18,0.01-10.76,0.01c-0.43,0-0.87-0.02-1.3,0.03c-0.3,0.04-0.55,0.12-0.56,0.49
			c-0.01,0.36,0.22,0.48,0.53,0.52c0.34,0.05,0.68,0.04,1.02,0.04c3.53,0,7.05,0,10.58,0c1.77,0,2.03,0.26,2.08,2.03
			c0.01,0.34,0.02,0.68,0,1.02c-0.11,1.33-0.21,1.43-1.59,1.44c-1.67,0.01-3.34,0-5.01,0c-0.28,0-0.56,0-0.83,0.04
			c-0.38,0.05-0.51,0.29-0.51,0.65c0.01,0.33,0.18,0.51,0.5,0.55c0.28,0.04,0.55,0.04,0.83,0.04c1.73,0,3.46,0,5.19,0
			c0.46,0,0.93-0.05,1.34,0.24c0.41,1.09,0.35,2.24,0.39,3.37c0.02,0.51-0.33,0.77-0.83,0.83c-0.37,0.04-0.74,0.04-1.11,0.04
			c-3.15,0-6.31,0-9.46,0c-0.34,0-0.68-0.01-1.02,0.05c-0.28,0.05-0.44,0.21-0.44,0.5c-0.01,0.31,0.17,0.44,0.44,0.49
			c0.31,0.05,0.62,0.04,0.93,0.04c3.37,0,6.74-0.01,10.11,0c1.44,0,1.59,0.16,1.61,1.6c0.01,0.62,0.09,1.23,0.14,1.85
			c0.08,1.05-0.18,1.36-1.23,1.39c-1.45,0.04-2.91,0.01-4.36,0.01c-0.34,0-0.68-0.02-1.02,0.01c-0.39,0.03-0.89-0.03-0.86,0.57
			c0.02,0.54,0.49,0.48,0.84,0.49c1.52,0.03,3.03,0.01,4.55,0.01c2.14,0,2.14,0,2.41,2.11c0.28,2.17,0.1,2.37-2.05,2.37
			c-3.46,0-6.93,0-10.39,0c-0.34,0-0.68-0.01-1.02,0.04c-0.32,0.05-0.49,0.23-0.5,0.56c-0.01,0.37,0.15,0.58,0.53,0.63
			c0.34,0.04,0.68,0.04,1.02,0.04c3.68,0,7.36-0.01,11.04,0c1.54,0,1.75,0.22,1.84,1.76c0.02,0.34,0.07,0.68,0.1,1.02
			c0.13,1.2-0.12,1.5-1.35,1.51c-1.79,0.03-3.59,0-5.38,0.01c-0.31,0-0.62-0.01-0.92,0.07c-0.24,0.07-0.35,0.23-0.35,0.48
			s0.12,0.41,0.36,0.47c0.3,0.07,0.61,0.07,0.92,0.07c1.86,0,3.71-0.02,5.57,0.01c1.21,0.02,1.48,0.27,1.6,1.44
			c0.08,0.74,0.19,1.47,0.26,2.21c0.11,1.09-0.09,1.35-1.18,1.37c-2.85,0.03-5.69,0.01-8.54,0.01c-0.31,0-0.62-0.01-0.93,0.02
			c-0.31,0.03-0.64,0.05-0.67,0.48c-0.03,0.48,0.32,0.54,0.67,0.57c0.31,0.03,0.62,0.02,0.93,0.02c2.91,0,5.81-0.01,8.72,0.01
			c1.18,0.01,1.34,0.14,1.55,1.26c0.27,1.43,0.53,2.86,0.92,4.26c0.08,0.3,0.16,0.6,0.02,0.91c0.1,0.32,0.2,0.64,0.34,1.1
			C-484.36,1094.43-491.14,1094.5-497.92,1094.29z"/>
		<path id="XMLID_15_" fill="#2B68DC" d="M-482.71,1029.65c-3.7,0-7.41-0.01-11.11,0c-0.59,0-0.97-0.02-0.98-0.81
			c-0.01-0.81,0.34-0.89,1-0.89c3.39,0.02,6.79-0.01,10.18,0.03c0.75,0.01,0.97-0.22,0.92-0.95c-0.06-0.92-0.01-1.85-0.01-2.78
			c-0.38-0.56-0.37-1.13,0-1.69c0-1.14-0.03-2.29,0.02-3.43c0.03-0.65-0.19-0.85-0.84-0.84c-2.38,0.03-4.75,0-7.13,0.02
			c-0.58,0-0.97-0.01-0.98-0.8c-0.01-0.8,0.33-0.9,0.99-0.89c2.28,0.03,4.57-0.03,6.85,0.03c0.91,0.03,1.24-0.26,1.1-1.14
			c-0.04-0.24,0-0.49,0-0.74c0.13-0.89,0.12-1.76-0.03-2.66c-0.19-1.1,0.18-2.19,0.21-3.29c0-0.59-0.04-1.18,0.01-1.76
			c0.05-0.65-0.19-0.85-0.84-0.85c-3.22,0.03-6.43,0.01-9.65,0.02c-0.58,0-1.02-0.01-1.04-0.8c-0.01-0.7,0.21-0.9,0.9-0.89
			c3.19,0.03,6.37-0.01,9.56,0.03c0.85,0.01,1.2-0.22,1.07-1.08c-0.12-0.81,0.12-1.6,0.18-2.39c0.06-0.75-0.16-1.03-0.96-1.01
			c-2.13,0.05-4.27,0.02-6.4,0.02c-0.4,0-0.82,0.07-0.82-0.57c0.01-0.65,0.45-0.55,0.84-0.55c2.17,0,4.33-0.02,6.5,0.01
			c0.63,0.01,0.87-0.16,0.86-0.83c-0.01-0.95,0.08-1.91,0.17-2.86c0.08-0.77-0.19-1-0.97-1c-4.27,0.04-8.54,0.02-12.81,0.02
			c-0.28,0-0.56,0.01-0.83-0.03c-0.34-0.05-0.42-0.31-0.42-0.62s0.08-0.57,0.43-0.62c0.27-0.04,0.56-0.03,0.83-0.03
			c4.36,0,8.72,0,13.09,0c0.44,0,0.91,0.07,0.88-0.61c2.01-0.47,4.01-0.95,6.12-1.44c-0.14,1.32-0.27,2.57-0.41,3.82
			c-0.76,6.82-1.34,13.66-1.86,20.51c-1.07,14.01-1.75,28.04-1.69,42.09c0.03,7.37,0.26,14.72,1.03,22.05
			c0.47,4.43,1.09,8.83,2.33,13.12c0.18,0.62,0.03,0.83-0.6,0.76c-0.27-0.03-0.56,0.01-0.83,0.01c-0.69-1.73-0.95-3.57-1.26-5.38
			c-0.11-0.68-0.35-0.78-0.93-0.78c-3.34,0.02-6.68,0-10.02,0.02c-0.64,0-1.02-0.05-1.01-0.88c0.01-0.79,0.38-0.82,0.98-0.81
			c3.22,0.02,6.43-0.01,9.65,0.02c0.81,0.01,1.03-0.2,0.83-1.02c-0.19-0.77-0.24-1.58-0.27-2.38c-0.02-0.75-0.24-1.11-1.09-1.09
			c-2.19,0.05-4.39,0-6.59,0.03c-0.59,0.01-0.9-0.1-0.89-0.8c0-0.68,0.19-0.92,0.89-0.9c2.13,0.04,4.27-0.03,6.4,0.03
			c0.88,0.02,0.99-0.38,0.87-1.06c-0.05-0.3-0.14-0.6-0.15-0.91c-0.08-1.77-0.08-1.77-1.88-1.77c-3.9,0-7.79-0.02-11.69,0.02
			c-0.74,0.01-0.94-0.21-0.95-0.94c0-0.74,0.22-0.94,0.95-0.94c4.08,0.03,8.16,0,12.24,0.03c0.7,0,1.04-0.15,0.95-0.92
			c-0.1-0.82-0.16-1.65-0.19-2.48c-0.02-0.58-0.41-0.51-0.78-0.52c-2.04,0-4.08-0.02-6.12,0.01c-0.66,0.01-0.92-0.14-0.93-0.87
			c-0.01-0.77,0.34-0.84,0.96-0.83c1.92,0.03,3.84-0.03,5.75,0.03c0.83,0.03,1.07-0.31,0.91-1.03c-0.17-0.79-0.21-1.6-0.16-2.39
			c0.05-0.71-0.22-0.89-0.9-0.88c-3.8,0.03-7.61,0-11.41,0.02c-0.59,0-0.9-0.1-0.89-0.8c0-0.68,0.19-0.91,0.89-0.9
			c3.71,0.03,7.42-0.01,11.13,0.04c0.86,0.01,1.13-0.29,0.98-1.06c-0.19-0.95-0.18-1.9-0.17-2.86c-0.39-0.51-0.32-1.09-0.2-1.65
			c0.1-0.45,0.17-0.88,0.02-1.32c-0.01-0.62,0-1.24-0.05-1.85c-0.06-0.65-0.33-0.97-1.11-0.96c-4.08,0.05-8.16,0.01-12.24,0.04
			c-0.65,0-0.95-0.12-0.93-0.86c0.02-0.65,0.21-0.85,0.86-0.84c4.05,0.02,8.1-0.02,12.15,0.04c0.99,0.02,1.25-0.3,1.14-1.2
			c-0.11-0.92-0.24-1.83-0.2-2.76c0.03-0.66-0.49-0.51-0.86-0.51c-2.87-0.01-5.75-0.02-8.62,0.01c-0.66,0.01-0.95-0.13-0.93-0.86
			c0.02-0.65,0.21-0.85,0.86-0.84c2.81,0.03,5.63,0.01,8.44,0.01c1.15,0,1.32-0.15,1.07-1.28c-0.14-0.65-0.15-1.29-0.11-1.93
			c0.04-0.71-0.23-0.88-0.91-0.88c-4.17,0.03-8.35,0-12.52,0.03c-0.68,0-0.92-0.17-0.91-0.88c0.01-0.67,0.25-0.82,0.87-0.82
			c4.11,0.02,8.22-0.02,12.33,0.03c0.89,0.01,1.21-0.23,1.12-1.13c-0.08-0.8-0.02-1.61-0.01-2.41c-0.31-0.73-0.25-1.46-0.16-2.23
			C-482.53,1032.13-482.51,1030.89-482.71,1029.65z"/>
		<path id="XMLID_13_" fill="#3C7CE4" d="M-511.09,991.38c0.33,0.04,0.34,0.28,0.36,0.54c0.31,3.55,0.6,7.11,0.94,10.66
			c0.38,4.01,0.69,8.03,0.95,12.06c0.19,2.95,0.38,5.9,0.55,8.85c0.15,2.59,0.22,5.17,0.37,7.76c0.55,9.3,0.36,18.6,0.3,27.9
			c-0.03,4.06-0.36,8.12-0.73,12.17c-0.5,5.39-1.19,10.76-2.56,16.01c-0.56,2.15-1.18,4.28-2.08,6.32
			c-0.09,0.19-0.11,0.41-0.16,0.62c-1.6,0-3.2,0.01-4.81,0.01c-0.04-0.03-0.06-0.06-0.05-0.09s0.02-0.05,0.04-0.05
			c2.01-4.14,3.18-8.55,4.08-13.04c1.48-7.42,2.04-14.93,2.3-22.47c0.28-8.26,0.01-16.51-0.49-24.76
			c-0.68-11.2-1.89-22.35-3.5-33.45c-0.28-1.89-0.59-3.78-0.91-5.67c-0.08-0.48-0.04-0.77,0.47-1
			C-514.36,992.98-512.73,992.16-511.09,991.38z"/>
		<path id="XMLID_12_" fill="#4C92F7" d="M-500.7,987.29c0.34-0.34,0.76-0.17,1.14-0.18c1.64-0.02,1.64-0.01,1.64-1.69
			c0-0.74,0-1.48,0-2.22c0.32-0.33,0.74-0.26,1.13-0.26c4.74-0.01,9.48-0.01,14.22,0c0.39,0,0.81-0.06,1.14,0.25
			c-0.11,1.5-0.21,2.99-0.32,4.49c-3.46-0.21-6.92-0.05-10.38-0.1c-1.92-0.03-3.83,0.03-5.75-0.03
			C-498.83,987.5-499.81,987.82-500.7,987.29z"/>
		<path id="XMLID_11_" fill="#2B68DC" d="M-497.92,987.29c5.09,0,10.19-0.01,15.28,0c0.34,0,0.78-0.15,0.89,0.4
			c-0.02,0.24-0.04,0.47-0.06,0.71c-5.37,0-10.74,0.01-16.11,0.01l0.01-0.01C-498.22,988.02-498.21,987.66-497.92,987.29z"/>
		<path id="XMLID_10_" fill="#2C69DD" d="M-480.87,976.89c-0.27,0.18-0.58,0.18-0.89,0.18c-3.68,0-7.36,0-11.03,0
			c-0.43,0-0.87,0.09-0.88-0.61c-0.02-0.73,0.42-0.69,0.9-0.68c3.71,0,7.42,0.01,11.13-0.01c0.59,0,0.88,0.16,0.82,0.77
			C-480.84,976.65-480.85,976.77-480.87,976.89z"/>
		<path id="XMLID_9_" fill="#2C69DD" d="M-481.42,982.1c0.02,0.13,0.03,0.26,0.05,0.39c-0.02,0.17-0.04,0.34-0.06,0.52
			c-0.26,0.16-0.54,0.09-0.81,0.09c-4.94,0-9.89,0-14.83,0c-0.22,0-0.43,0.02-0.65-0.01c-0.31-0.05-0.39-0.29-0.39-0.55
			s0.09-0.5,0.4-0.54c0.15-0.02,0.31-0.01,0.46-0.01c5.1,0,10.2,0,15.29,0C-481.77,982-481.58,981.96-481.42,982.1z"/>
		<path id="XMLID_8_" fill="#2B68DC" d="M-480.13,970.94c-0.11,0.05-0.22,0.15-0.33,0.15c-2.5,0.02-5.01,0.03-7.51,0.03
			c-0.67,0-0.45-0.54-0.47-0.9c-0.03-0.37-0.07-0.77,0.51-0.77c2.44,0.01,4.89,0.01,7.33,0c0.6,0,0.47,0.44,0.53,0.77
			C-480.1,970.47-480.12,970.7-480.13,970.94z"/>
		<path id="XMLID_7_" fill="#3F7FE6" d="M-481.42,982.1c-5.23-0.01-10.45-0.01-15.68-0.01c-0.34,0-0.81-0.14-0.81,0.46
			c0,0.6,0.47,0.46,0.81,0.46c5.23,0,10.45,0,15.68,0c0,0.06-0.01,0.12-0.01,0.19c-5.5,0-10.99,0-16.49,0.01
			c-1.51,0-3.02-0.01-4.53-0.01c-0.49,0-0.86-0.08-0.84-0.69c0.02-0.58,0.41-0.6,0.84-0.6c1.51,0,3.02,0,4.53-0.01
			c5.16,0,10.31,0,15.47,0.01C-482.11,981.91-481.71,981.74-481.42,982.1z"/>
		<path id="XMLID_6_" fill="#3D7CE5" d="M-497.92,987.29c0,0.37,0.01,0.73,0.01,1.1c-0.58,0-1.16-0.05-1.73,0.02
			c-0.91,0.11-1.22-0.26-1.06-1.12C-499.78,987.29-498.85,987.29-497.92,987.29z"/>
		<path id="XMLID_5_" fill="#2B68DC" d="M-482.52,1008.83c0,1.69,0.01,3.38,0,5.08c0,0.3,0.1,0.62-0.17,0.87
			c-0.08-0.76,0.33-1.74-0.18-2.23c-0.54-0.52-1.53-0.17-2.32-0.17c-3.18-0.02-6.36-0.02-9.54,0c-0.64,0-1.02-0.05-1.01-0.88
			c0.01-0.78,0.37-0.82,0.97-0.82c3.61,0.02,7.22-0.02,10.83,0.03c0.91,0.01,1.42-0.15,1.24-1.19
			C-482.73,1009.28-482.74,1009.02-482.52,1008.83z"/>
		<path id="XMLID_4_" fill="#2B68DD" d="M-482.71,1029.65c0.01-0.03,0-0.07,0.02-0.09c0.03-0.04,0.07-0.06,0.11-0.09
			c0.02,0.2,0.06,0.4,0.06,0.61c0,1.84,0,3.68,0,5.52c-0.25-0.41-0.65-0.39-1.06-0.39c-2.69,0.01-5.38-0.01-8.06,0.02
			c-0.71,0.01-1.13-0.04-1.12-0.96c0.01-0.88,0.41-0.91,1.08-0.91c2.72,0.02,5.44-0.01,8.16,0.02c0.65,0.01,0.87-0.2,0.84-0.85
			C-482.73,1031.57-482.7,1030.61-482.71,1029.65z"/>
		<path id="XMLID_3_" fill="#2B68DC" d="M-482.71,1022.57c0,0.56,0,1.13,0,1.69c-3.42,0-6.85-0.02-10.27,0.01
			c-0.7,0.01-0.89-0.21-0.89-0.9s0.29-0.81,0.89-0.8C-489.55,1022.58-486.13,1022.57-482.71,1022.57z"/>
		<path id="XMLID_2_" fill="#2C68DD" d="M-481.95,1055.46c0.38,0.97,0.08,1.98,0.18,2.97c-2.44,0-4.87-0.03-7.31,0.01
			c-0.7,0.01-0.9-0.22-0.89-0.9c0.01-0.67,0.11-1,0.9-0.98c2,0.06,4.01-0.03,6.01,0.04
			C-482.14,1056.63-481.82,1056.33-481.95,1055.46z"/>
	</g>
	<path id="XMLID_14_" fill="#ABD2D8" d="M-553,1099.92l219.39-0.19l-40.17-5.38c-6.03-0.81-12.37-1.12-17.97-0.9l-30.29,1.22
		l-35.16-4.24l-2,0.2c-10.94,1.95-20.37,4.83-33.26,4.83c-10.67,0-25-4.28-29.89-3.51c-10.05,1.35-20.65,2.76-30.65,4.3V1099.92z"/>
	<g>
		<path fill="#FFC0BB" d="M-294.87,996.89c-0.18,0.12-3.36,5.84-3.36,5.84l-4.28-3.77l4.16-6.94l3.48,1.95V996.89z"/>
		<path fill="#F99893" d="M-300.77,996.04c0.53,1.49,1.61,3.47,3.78,4.46c0.91-1.62,2.01-3.54,2.12-3.61v-2.91l-3.48-1.95
			L-300.77,996.04z"/>
		<path fill="#FFFFFF" d="M-339.64,1054.65c0,0-1.21-0.85-2.37,1.88c-1.16,2.73,0.4,3.82,0.4,3.82s1.99-1.47,1.97-1.75
			c-0.02-0.28-0.09-3.81-0.09-3.81L-339.64,1054.65z"/>
		<path fill="#FF5B7E" d="M-337.64,1053.66c0,0-0.98-0.6-2.08,1.12c-0.41,0.64-0.83,1.59-1.23,3.01c-1.47,5.26,0,5.26,0,5.26
			l2.47-1.05c0,0,2.37-6.03,2.23-6.52C-336.39,1054.99-337.64,1053.66-337.64,1053.66z"/>
		<path fill="#283F56" d="M-317.08,1040.12h-40.67c-0.45,0-0.81,0.36-0.81,0.81v0c0,0.45,0.36,0.81,0.81,0.81h40.67
			c0.45,0,0.81-0.36,0.81-0.81l0,0C-316.27,1040.48-316.63,1040.12-317.08,1040.12z"/>
		<rect x="-327.05" y="1040.93" fill="#283F56" width="2.84" height="7.52"/>
		<path fill="#283F56" d="M-347.48,1046.4L-347.48,1046.4c-0.94,0-1.71-0.77-1.71-1.71v-5.23h3.42v5.23
			C-345.77,1045.63-346.54,1046.4-347.48,1046.4z"/>
		<path fill="#283F56" d="M-346.25,1044.69c0.41,0.47,10.36,9.83,10.36,9.83l-0.84,1.16l-10.52-10.37L-346.25,1044.69z"/>
		<path fill="#FFE5B6" d="M-255.86,1061.96h0.56c1.16,0,2.1,0.94,2.1,2.1v2.7h-2.59c0,0-1.16-2-1.58-1.58
			C-257.79,1065.61-255.86,1061.96-255.86,1061.96z"/>
		<circle fill="#1A1A1A" cx="-323.68" cy="1082.4" r="15.24"/>
		<circle fill="#9E9DA2" cx="-323.68" cy="1082.4" r="6.87"/>
		<circle fill="#1A1A1A" cx="-251.41" cy="1082.4" r="15.24"/>
		<circle fill="#9E9DA2" cx="-251.41" cy="1082.4" r="6.87"/>
		<path fill="#283F56" d="M-305.48,1080.16h-34.38c-2.65,0-4.8-2.15-4.8-4.8l0,0c0-2.65,2.15-4.8,4.8-4.8h34.38V1080.16z"/>
		<path fill="#FF5B7E" d="M-299.38,1052.58h-28.4c-1.58,0-2.86-1.28-2.86-2.86l0,0c0-1.58,1.28-2.86,2.86-2.86h28.4
			c1.58,0,2.86,1.28,2.86,2.86l0,0C-296.52,1051.3-297.8,1052.58-299.38,1052.58z"/>
		<path fill="#333333" d="M-297.71,1052.04c0,0-2.73,1.51-4.94,7.82c-2.21,6.31-1.74,15.83,11.99,16.57h21.09l2.1-3.7
			c0,0-1.79-25.17-5.89-36.32h6.94c0,0,2.1,21.43,9.46,24.32c0.71,0.28,1.17,0.97,1.17,1.73v4.24l-11.15,14.41h-36.71
			c0,0-8.62,0.76-10.73-13.88l-24.89-0.38c-1.36-0.02-2.33-1.34-1.93-2.65c0.78-2.53,2.36-6.09,5.23-6.88
			C-331.42,1056.07-297.71,1052.04-297.71,1052.04z"/>
		<path fill="#283F56" d="M-337.92,1058.13c0.03,0.06,0.07,0.11,0.11,0.17h35.76l0.37-0.84c1.97-4.31,3.98-5.42,3.98-5.42h-36.67
			C-337.51,1052.04-339.52,1055.45-337.92,1058.13z"/>
		<path fill="#FF5B7E" d="M-340.08,1070.55h26.72c2.87,0,4.89-2.83,3.94-5.54c-1.42-4.09-4.73-8.5-12.88-9.25
			c-10.52-0.97-16.88,7.43-19.4,12.1C-342.35,1069.07-341.47,1070.55-340.08,1070.55z"/>
		<path fill="#FF5B7E" d="M-266.94,1081.11l8.2-13.25c0,0,4.21-3.26,12.52-1.58c5.16,1.05,8.21,4.49,9.78,6.95
			c0.73,1.14-0.08,2.63-1.44,2.63h-12.63c-3.87,0-7.54,1.75-9.97,4.77l-0.32,0.4c-1.75,2.18-4.4,3.44-7.19,3.44l0,0
			c-1.89,0-3.71-0.72-5.08-2.02l-1.43-1.35H-266.94z"/>
		<path fill="#FF5B7E" d="M-265.85,1023.21c0-1.11-1.02-1.95-2.11-1.74c-4.65,0.91-9.54,4.64-9.54,9.1s4.88,8.19,9.54,9.1
			c1.09,0.21,2.11-0.62,2.11-1.74V1023.21z"/>
		<path fill="#FFFFFF" d="M-265.85,1023.25v14.65c3.11-0.99,5.36-3.89,5.36-7.33C-260.49,1027.14-262.74,1024.24-265.85,1023.25z"/>
		<rect x="-355.54" y="1018.26" fill="#FF5B7E" width="36.25" height="21.86"/>
		<rect x="-356.31" y="1015.51" fill="#D12A56" width="37.79" height="2.75"/>
		<circle fill="#282828" cx="-347.48" cy="1044.56" r="0.75"/>
		<path fill="#333333" d="M-315.55,1062.4h-16.99c-0.28,0-0.5-0.22-0.5-0.5l0,0c0-0.28,0.22-0.5,0.5-0.5h16.99
			c0.28,0,0.5,0.22,0.5,0.5v0C-315.05,1062.18-315.27,1062.4-315.55,1062.4z"/>
		<path fill="#333333" d="M-315.55,1064.93h-16.99c-0.28,0-0.5-0.22-0.5-0.5l0,0c0-0.28,0.22-0.5,0.5-0.5h16.99
			c0.28,0,0.5,0.22,0.5,0.5l0,0C-315.05,1064.7-315.27,1064.93-315.55,1064.93z"/>
		<polygon fill="#FFC0BB" points="-284.14,1063.19 -285.45,1077.34 -286.59,1079.38 -288.62,1077.91 -288.58,1062.83 		"/>
		<polygon fill="#FFC0BB" points="-276.49,1061.86 -277.14,1077.34 -278.27,1079.38 -280.31,1077.91 -280.27,1062.83 		"/>
		<g>
			<path fill="#DAEEF7" d="M-271.96,1080.34l-8.79,0.03c-0.07,0-0.12-0.06-0.12-0.12l0-0.66c0-0.07,0.06-0.12,0.12-0.12l8.79-0.03
				c0.07,0,0.12,0.06,0.12,0.12l0,0.66C-271.83,1080.29-271.89,1080.34-271.96,1080.34z"/>
			<path fill="#FF5B7E" d="M-280.47,1076.7l-0.29,2.53c-0.04,0.31,0.14,0.59,0.37,0.59l7.96-0.03c0.21,0,0.41-0.13,0.52-0.37
				c0.11-0.25,0.13-0.62-0.23-1.13c-0.72-1.01-3.06-1.24-4.21-2.1l-3.71,0.01C-280.26,1076.21-280.43,1076.42-280.47,1076.7z"/>
			<g>
				<path fill="#DAEEF7" d="M-276.9,1077.67L-276.9,1077.67c-0.06-0.04-0.08-0.13-0.05-0.21c0.16-0.35,0.64-1.19,1.64-1.02
					c0.06,0.01,0.1,0.09,0.09,0.16l0,0c-0.01,0.08-0.06,0.13-0.12,0.12c-0.89-0.15-1.3,0.6-1.43,0.89
					C-276.8,1077.67-276.85,1077.7-276.9,1077.67z"/>
			</g>
			<g>
				<path fill="#DAEEF7" d="M-276.07,1077.99L-276.07,1077.99c-0.06-0.04-0.08-0.13-0.05-0.21c0.16-0.35,0.64-1.19,1.64-1.02
					c0.06,0.01,0.1,0.09,0.09,0.16l0,0c-0.01,0.08-0.06,0.13-0.12,0.12c-0.89-0.15-1.3,0.6-1.43,0.89
					C-275.97,1078-276.02,1078.02-276.07,1077.99z"/>
			</g>
			<g>
				<path fill="#DAEEF7" d="M-275.3,1078.29L-275.3,1078.29c-0.06-0.04-0.08-0.13-0.05-0.21c0.16-0.35,0.64-1.19,1.64-1.02
					c0.06,0.01,0.1,0.09,0.09,0.16l0,0c-0.01,0.08-0.06,0.13-0.12,0.12c-0.89-0.15-1.3,0.6-1.43,0.89
					C-275.2,1078.3-275.25,1078.32-275.3,1078.29z"/>
			</g>
			<path opacity="0.3" fill="#E87B50" d="M-278.26,1079.82c-0.63-2.04-1.72-2.26-2.31-2.21l-0.19,1.63
				c-0.04,0.31,0.14,0.59,0.37,0.59L-278.26,1079.82z"/>
		</g>
		<path fill="#333333" d="M-315.55,1067.46h-16.99c-0.28,0-0.5-0.22-0.5-0.5l0,0c0-0.28,0.22-0.5,0.5-0.5h16.99
			c0.28,0,0.5,0.22,0.5,0.5v0C-315.05,1067.23-315.27,1067.46-315.55,1067.46z"/>
		<path fill="#282828" d="M-282.07,1042.35c1.04,0.08,5.37,1.84,5.93,4.97c0.56,3.12,0,27.39,0,27.39h-4.81
			c0,0-3.84-19.22-3.84-19.78S-282.07,1042.35-282.07,1042.35z"/>
		<path fill="#333333" d="M-315.07,1035.39c0.08,0.24-1.06,10.97,9.88,11.85c10.94,0.88,17.27,2.32,17.27,2.32
			s-1.52,24.27-1.44,25.47c0,0,3.76,0.64,5.37,0.4c0,0,8.57-26.91,6.09-32.44c-2.48-5.53-22.27-7.61-22.27-7.61H-315.07z"/>
		<path fill="#F9B7B4" d="M-296.86,1016.09c0,0,0.11,5.22,0.46,5.71c0.35,0.48,16.93,6.82,16.93,6.82l-2.72,3.08l-12.21-3.49
			c0,0-8.75-3.14-8.66-3.36c0.09-0.23,0.57-3.44,1-4.7c0.43-1.26,2.06-4.1,2.06-4.1L-296.86,1016.09z"/>
		<path fill="#FEB546" d="M-302.97,997.86c0,0-11.08,4.02-12.34,25.89l-0.54,12.43c0,0,12.61,5.41,19.82,0.72
			c0,0,0.73-22.19,1.49-30.31c0.13-1.37-0.43-2.71-1.49-3.59C-298.44,1001.01-302.56,997.68-302.97,997.86z"/>
		<path fill="#FFC0BB" d="M-306.82,1013.4c0,0-2.71,11.19,1.08,14.27c2.36,1.92,24.38,5.68,24.38,5.68l1.42-3.43
			c0,0-17.53-6.26-18.58-6.98c-1.05-0.72,0.71-10.29,0.71-10.29L-306.82,1013.4z"/>
		<path fill="#F4A640" d="M-298.25,1001.91c-0.99-0.88-2.41-1.11-3.63-0.6c-1.69,0.71-4.11,2.74-5.42,8.46l-1.11,4.93
			c0,0,8.23,2.02,10.75,1.91l1.29-7.62C-296.38,1008.99-295.65,1004.23-298.25,1001.91z"/>
		<path fill="#333333" d="M-325.2,1015.51h-6.74l-12.63,24.61c1.1,0,4.53,0,6.74,0L-325.2,1015.51L-325.2,1015.51z"/>
		<g>
			<path fill="#FFE5B6" d="M-333.67,1031.06l-4.52-2.32c-0.69-0.36-0.97-1.21-0.61-1.9l1.33-2.59c0.36-0.69,1.21-0.97,1.9-0.61
				l4.52,2.32c0.69,0.36,0.97,1.21,0.61,1.9l-1.33,2.59C-332.13,1031.15-332.98,1031.42-333.67,1031.06z M-335.95,1024.38
				c-0.29-0.15-0.64-0.03-0.79,0.25l-1.33,2.59c-0.15,0.29-0.03,0.64,0.25,0.79l4.52,2.32c0.29,0.15,0.64,0.03,0.79-0.25l1.33-2.59
				c0.15-0.29,0.03-0.64-0.25-0.79L-335.95,1024.38z"/>
		</g>
		<path fill="#FFC0BB" d="M-299.39,989.63c0.56,1.21,0.1,2.57-1.01,3.04c-1.12,0.47-2.47-0.14-3.03-1.35
			c-0.56-1.21-0.1-2.57,1.01-3.04C-301.3,987.81-299.95,988.41-299.39,989.63z"/>
		<g>
			<path fill="#DAEEF7" d="M-280.47,1080.34l-8.79,0.03c-0.07,0-0.12-0.06-0.12-0.12l0-0.66c0-0.07,0.06-0.12,0.12-0.12l8.79-0.03
				c0.07,0,0.12,0.06,0.12,0.12l0,0.66C-280.34,1080.29-280.4,1080.34-280.47,1080.34z"/>
			<path fill="#FF5B7E" d="M-288.98,1076.7l-0.29,2.53c-0.04,0.31,0.14,0.59,0.37,0.59l7.96-0.03c0.21,0,0.41-0.13,0.52-0.37
				c0.11-0.25,0.13-0.62-0.23-1.13c-0.72-1.01-3.06-1.24-4.21-2.1l-3.71,0.01C-288.77,1076.21-288.95,1076.42-288.98,1076.7z"/>
			<g>
				<path fill="#DAEEF7" d="M-285.41,1077.67L-285.41,1077.67c-0.06-0.04-0.08-0.13-0.05-0.21c0.16-0.35,0.64-1.19,1.64-1.02
					c0.06,0.01,0.1,0.09,0.09,0.16l0,0c-0.01,0.08-0.06,0.13-0.12,0.12c-0.89-0.15-1.3,0.6-1.43,0.89
					C-285.31,1077.67-285.36,1077.7-285.41,1077.67z"/>
			</g>
			<g>
				<path fill="#DAEEF7" d="M-284.58,1077.99L-284.58,1077.99c-0.06-0.04-0.08-0.13-0.05-0.21c0.16-0.35,0.64-1.19,1.64-1.02
					c0.06,0.01,0.1,0.09,0.09,0.16l0,0c-0.01,0.08-0.06,0.13-0.12,0.12c-0.89-0.15-1.3,0.6-1.43,0.89
					C-284.48,1078-284.54,1078.02-284.58,1077.99z"/>
			</g>
			<g>
				<path fill="#DAEEF7" d="M-283.81,1078.29L-283.81,1078.29c-0.06-0.04-0.08-0.13-0.05-0.21c0.16-0.35,0.64-1.19,1.64-1.02
					c0.06,0.01,0.1,0.09,0.09,0.16l0,0c-0.01,0.08-0.06,0.13-0.12,0.12c-0.89-0.15-1.3,0.6-1.43,0.89
					C-283.71,1078.3-283.77,1078.32-283.81,1078.29z"/>
			</g>
			<path opacity="0.3" fill="#E87B50" d="M-286.77,1079.82c-0.63-2.04-1.72-2.26-2.31-2.21l-0.19,1.63
				c-0.04,0.31,0.14,0.59,0.37,0.59L-286.77,1079.82z"/>
		</g>
		<path fill="#283F56" d="M-265.68,1084.83h-42.98c-1.45,0-2.63-1.18-2.63-2.63v0c0-1.45,1.18-2.63,2.63-2.63h42.98
			c1.45,0,2.63,1.18,2.63,2.63l0,0C-263.05,1083.65-264.23,1084.83-265.68,1084.83z"/>
		<path opacity="0.8" fill="#FFFFFF" d="M-331.83,1097.79h-29.45c0,0-13.46-4.17,0-4.03c0,0-7.92-5.89,4.07-4.49
			c11.99,1.4,13.11,4.98,13.11,4.98S-341.71,1090.03-331.83,1097.79z"/>
		<path opacity="0.8" fill="#FFFFFF" d="M-293.18,1097.7l19.15-0.14c0,0-10.46-6.03-11.93-3.4
			C-285.96,1094.17-304.5,1090.33-293.18,1097.7z"/>
		<path opacity="0.8" fill="#FFFFFF" d="M-233.06,1097.72h-33.59c0,0-3.01-3.6,3.6-2.3c0,0-4.29-5.52,5.62-3.31l6.02,2.02
			c0,0-9.83-12.43,1.21-8.12C-239.17,1090.33-233.06,1097.72-233.06,1097.72z"/>
		<path opacity="0.8" fill="#FFFFFF" d="M-312.2,1097.7h-8.88c0,0-1.15-2.52,2.07-1.26C-319.01,1096.44-323.35,1087.96-312.2,1097.7
			z"/>
		<path fill="#FFFFFF" d="M-290.95,994.96l-0.44,1.7c0,0-3.8-3.08-3.77-3.14c0.03-0.06,0.69-1.16,0.98-1.07
			c0.29,0.09,2.66,1.01,2.66,1.07S-290.95,994.96-290.95,994.96z"/>
		<path fill="#FFC0BB" d="M-293.61,993.79c1.16,1.13,2.29,1.36,2.8,1.4c0.16-0.58,0.27-1.01,0.27-1.01s1.28-0.4,1.69-0.85
			c0,0-1.29-1.77-1.31-2.6c-0.02-0.83,1.27-5.8-2.31-8.62c-3.58-2.82-5.7,2.23-5.7,2.23l-1.52,5.23l-2.08,3.16
			c0,0,0.5,2.86,3.34,4.87c2.84,2.01,5.97,1.24,6.51,1c0.13-0.06,0.51-1.3,0.84-2.45C-292.94,995.53-293.61,993.79-293.61,993.79z"
			/>
		<path fill="#333333" d="M-292.95,990.58c0.15,0.26,0.5,0.36,0.77,0.21c0.27-0.14,0.37-0.47,0.22-0.73
			c-0.15-0.26-0.5-0.36-0.77-0.21C-293,989.99-293.1,990.32-292.95,990.58z"/>
		<path fill="#333333" d="M-293.76,989.58c0.2-0.17,0.39-0.32,0.6-0.44c0.2-0.12,0.41-0.22,0.63-0.28c0.22-0.06,0.44-0.1,0.68-0.1
			l0.09,0c0.03,0,0.06,0,0.09,0.01l0.18,0.01c0.12,0.01,0.24,0.03,0.38,0.04c-0.1-0.07-0.21-0.14-0.32-0.2
			c-0.12-0.04-0.24-0.1-0.37-0.12c-0.26-0.06-0.54-0.04-0.81,0.04c-0.27,0.08-0.51,0.22-0.71,0.4
			C-293.52,989.12-293.68,989.34-293.76,989.58z"/>
		<path fill="#D12A56" d="M-297.59,986.8c0,0-1.26,1.06-1.57,5.96c-0.24,3.79-3.42,4.41-3.36,4.39s0.89-8.33,1.05-8.61
			c0.16-0.28,1.23-3.44,1.4-3.52c0.17-0.08,2.33,1.33,2.45,1.37C-297.5,986.41-297.59,986.8-297.59,986.8z"/>
		<path fill="#FF5B7E" d="M-287.53,983.33c0,0-1.28-8.4-12.05-7.94c-10.77,0.45-10.42,12.95-10.42,12.95s-0.43,9.05,6.01,9.05
			c0,0,4.37,0.28,4.37-5.17c0-5.27,1.6-5.27,1.6-5.27L-287.53,983.33z"/>
		<path opacity="0.5" fill="#FF5B7E" d="M-307.65,979.73c-2.49,3.76-2.35,8.6-2.35,8.6s-0.43,9.05,6.01,9.05
			c0,0,4.25,0.27,4.36-4.95C-305.54,990.33-307.45,985.13-307.65,979.73z"/>
		<circle fill="#D12A56" cx="-304.15" cy="993.98" r="1.22"/>
		<path fill="#1A1A1A" d="M-298.02,986.95c0.33-0.11,8.54-0.75,12.4-1.04c0.66-0.05,0.89-0.9,0.35-1.28l-2.26-1.57L-298.02,986.95z"
			/>
		<path fill="#283F56" d="M-298.02,986.95c0.37-0.13,8.39-2.78,10.7-3.55c0.33-0.11,0.5-0.48,0.36-0.8l-0.31-0.73
			c-0.14-0.32-0.53-0.46-0.84-0.29L-298.02,986.95z"/>
		<path fill="#FFC0BB" d="M-281.96,1029.56c0,0,2.72-1.66,3.9-1.66s3.67,0.71,3.67,1.89s-0.71,1.89-0.71,1.89l-2.4,2.07
			c0,0-1.15,0.89-1.62,0.41c-0.47-0.47-1.89,0.12-4.24-1.18c-2.3-1.27-0.14-2.02,0.21-2.37
			C-282.78,1030.27-281.96,1029.56-281.96,1029.56z"/>
		<circle fill="#1A1A1A" cx="-276.93" cy="1031.31" r="2.52"/>
	</g>
</g>
</svg>
