<?xml version="1.0" encoding="utf-8"?>
<!-- Generator: Adobe Illustrator 19.0.0, SVG Export Plug-In . SVG Version: 6.00 Build 0)  -->
<svg version="1.1" id="Layer_1" xmlns="http://www.w3.org/2000/svg" xmlns:xlink="http://www.w3.org/1999/xlink" x="0px" y="0px"
	 viewBox="-667 889 200 272" style="enable-background:new -667 889 200 272;" xml:space="preserve">
<style type="text/css">
	.st0{fill:#FFCDA4;}
	.st1{fill:#260700;}
	.st2{fill:none;}
	.st3{font-family:'Impact';}
	.st4{font-size:50px;}
</style>
<path id="XMLID_2253_" class="st0" d="M-469.6,889c1.2,0,2.1,1,2.1,2.1v47.3v67.5v86.5c0,0.6-0.2,1.2-0.6,1.6
	c-0.4,0.4-0.6,0.8-0.6,1.4c0,0,0.2,0.2,0.2,0.2h-2.4c0,0,0-0.1,0-0.1c0-1.2-1.3-2.3-3-2.3c-1.6,0-3,1-3,2.2c0,0,0,0.2,0,0.2h-2.4
	c0,0,0-0.1,0-0.1c0-1.2-1.3-2.3-3-2.3c-1.6,0-3,1-3,2.2c0,0,0,0.2,0,0.2h-2.4c0,0,0-0.1,0-0.1c0-1.2-1.3-2.3-3-2.3c-1.6,0-3,1-3,2.2
	c0,0,0,0.2,0,0.2h-2.4c0,0,0-0.1,0-0.1c0-1.2-1.3-2.3-3-2.3c-1.6,0-3,1-3,2.2c0,0,0,0.2,0,0.2h-2.4c0,0,0-0.1,0-0.1
	c0-1.2-1.3-2.3-3-2.3c-1.6,0-3,1-3,2.2c0,0,0,0.2,0,0.2h-2.4c0,0,0-0.1,0-0.1c0-1.2-1.3-2.3-3-2.3c-1.6,0-3,1-3,2.2c0,0,0,0.2,0,0.2
	h-2.4c0,0,0-0.1,0-0.1c0-1.2-1.3-2.3-3-2.3c-1.6,0-3,1-3,2.2c0,0,0,0.2,0,0.2h-2.4c0,0,0-0.1,0-0.1c0-1.2-1.3-2.3-3-2.3s-3,1-3,2.2
	c0,0,0,0.2,0,0.2h-2.4c0,0,0-0.1,0-0.1c0-1.2-1.3-2.3-3-2.3c-1.6,0-3,1-3,2.2c0,0,0,0.2,0,0.2h-2.4c0,0,0-0.1,0-0.1
	c0-1.2-1.3-2.3-3-2.3c-1.6,0-3,1-3,2.2c0,0,0,0.2,0,0.2h-2.4c0,0,0-0.1,0-0.1c0-1.2-1.3-2.3-3-2.3c-1.6,0-3,1-3,2.2c0,0,0,0.2,0,0.2
	h-2.4c0,0,0-0.1,0-0.1c0-1.2-1.3-2.3-3-2.3c-1.6,0-3,1-3,2.2c0,0,0,0.2,0,0.2h-2.4c0,0,0-0.1,0-0.1c0-1.2-1.3-2.3-3-2.3
	c-1.6,0-3,1-3,2.2c0,0,0,0.2,0,0.2h-2.4c0,0,0-0.1,0-0.1c0-1.2-1.3-2.3-3-2.3c-1.6,0-3,1-3,2.2c0,0,0,0.2,0,0.2h-2.4
	c0,0,0-0.1,0-0.1c0-1.2-1.3-2.3-3-2.3c-1.6,0-3,1-3,2.2c0,0,0,0.2,0,0.2h-2.4c0,0,0-0.1,0-0.1c0-1.2-1.3-2.3-3-2.3c-1.6,0-3,1-3,2.2
	c0,0,0,0.2,0,0.2h-2.4c0,0,0-0.1,0-0.1c0-1.2-1.3-2.3-3-2.3c-1.6,0-3,1-3,2.2c0,0,0,0.2,0,0.2h-2.4c0,0,0-0.1,0-0.1
	c0-1.2-1.3-2.3-3-2.3c-1.6,0-3,1-3,2.2c0,0,0,0.2,0,0.2h-2.4c0,0,0-0.1,0-0.1c0-1.2-1.3-2.3-3-2.3c-1.6,0-3,1-3,2.2c0,0,0,0.2,0,0.2
	h-2.4c0,0,0-0.1,0-0.1c0-1.2-1.3-2.3-3-2.3c-1.6,0-3,1-3,2.2c0,0,0,0.2,0,0.2h-2.4c0,0,0-0.1,0-0.1c0-1.2-1.3-2.3-3-2.3
	c-1.6,0-3,1-3,2.2c0,0,0,0.2,0,0.2h-2.4c0,0,0-0.1,0-0.1c0-1.2-1.3-2.3-3-2.3c-1.6,0-3,1-3,2.2c0,0,0,0.2,0,0.2h-2.4
	c0,0,0-0.1,0-0.1c0-1.2-1.3-2.3-3-2.3c-1.6,0-3,1-3,2.2c0,0,0,0.2,0,0.2h-2.8c0,0,0-0.1,0-0.1c0-1.2-1.5-2.3-3.1-2.3c0,0,0,0,0,0
	c-1.2,0-2.2-0.9-2.2-2.1v-85.4v-67.8v-47c0-1.2,1-2.1,2.1-2.1L-469.6,889L-469.6,889z"/>
<path id="XMLID_2799_" class="st1" d="M-666,1136.1v7.4v10.8c0,3.7,4.3,6.8,9.8,6.8h68.7c0,0,0-0.1,0-0.1c0-5.7,6.9-10.4,15.5-10.4
	c8.5,0,15.5,4.7,15.5,10.4c0,0,0,0.1,0,0.1h79.6c5.4,0,9.4-3.1,9.4-6.8v-10.8v-7.4v-39.9H-666C-666,1096.2-666,1136.1-666,1136.1z"
	/>
<line class="st2" x1="-632.8" y1="905" x2="-632.8" y2="904.9"/>
<g>
	<g id="XMLID_4468_">
		<rect id="XMLID_4474_" x="-532.6" y="1003.5" class="st1" width="2.3" height="43.2"/>
		<rect id="XMLID_4724_" x="-536.8" y="1003.5" class="st1" width="2.3" height="43.2"/>
		<rect id="XMLID_4725_" x="-545.4" y="1003.5" class="st1" width="2.3" height="43.2"/>
		<rect id="XMLID_4726_" x="-570.8" y="1003.5" class="st1" width="2.3" height="43.2"/>
		<rect id="XMLID_4727_" x="-575.4" y="1003.5" class="st1" width="2.3" height="43.2"/>
		<rect id="XMLID_4728_" x="-584.3" y="1003.5" class="st1" width="6.5" height="43.2"/>
		<rect id="XMLID_4729_" x="-590.7" y="1003.5" class="st1" width="2" height="43.2"/>
		<rect id="XMLID_4730_" x="-595" y="1003.5" class="st1" width="2" height="43.2"/>
		<rect id="XMLID_4731_" x="-599.1" y="1003.5" class="st1" width="2" height="43.2"/>
		<rect id="XMLID_4732_" x="-603.7" y="1003.5" class="st1" width="2" height="43.2"/>
		<rect id="XMLID_4733_" x="-550.6" y="1003.5" class="st1" width="2.3" height="43.2"/>
		<rect id="XMLID_4734_" x="-559.2" y="1003.5" class="st1" width="6.3" height="43.2"/>
		<rect id="XMLID_4735_" x="-562.9" y="1003.5" class="st1" width="1" height="43.2"/>
		<rect id="XMLID_4736_" x="-565.1" y="1003.5" class="st1" width="1" height="43.2"/>
		<rect id="XMLID_4737_" x="-567" y="1003.5" class="st1" width="1" height="43.2"/>
	</g>
	<text transform="matrix(1 0 0 1 -593.8038 994.0168)" class="st1 st3 st4">25</text>
</g>
</svg>
