<?xml version="1.0" encoding="utf-8"?>
<!-- Generator: Adobe Illustrator 19.0.0, SVG Export Plug-In . SVG Version: 6.00 Build 0)  -->
<svg version="1.1" id="Layer_1" xmlns="http://www.w3.org/2000/svg" xmlns:xlink="http://www.w3.org/1999/xlink" x="0px" y="0px"
	 viewBox="-667 889 200 272" enable-background="new -667 889 200 272" xml:space="preserve">
<path id="XMLID_2253_" fill="#BBFAFF" d="M-469.63,888.99c1.17,0,2.1,0.95,2.1,2.1v47.26v67.5v86.5c0,0.59-0.2,1.18-0.62,1.59
	c-0.39,0.37-0.56,0.84-0.56,1.37c0,0.02,0.17,0.16,0.17,0.16h-2.37c0,0,0.01-0.1,0.01-0.11c0-1.19-1.33-2.25-2.95-2.25
	c-1.62,0-2.95,1-2.95,2.19c0,0.02,0.01,0.18,0.01,0.18h-2.37c0,0,0.01-0.1,0.01-0.11c0-1.19-1.33-2.25-2.95-2.25
	c-1.64,0-2.95,1-2.95,2.19c0,0.02,0.01,0.18,0.01,0.18h-2.37c0,0,0.01-0.1,0.01-0.11c0-1.19-1.33-2.25-2.95-2.25
	c-1.62,0-2.95,1-2.95,2.19c0,0.02,0.01,0.18,0.01,0.18h-2.37c0,0,0.01-0.1,0.01-0.11c0-1.19-1.33-2.25-2.95-2.25
	c-1.63,0-2.95,1-2.95,2.19c0,0.02,0.01,0.18,0.01,0.18h-2.37c0,0,0.01-0.1,0.01-0.11c0-1.19-1.33-2.25-2.95-2.25
	c-1.62,0-2.95,1-2.95,2.19c0,0.02,0.01,0.18,0.01,0.18h-2.37c0,0,0.01-0.1,0.01-0.11c0-1.19-1.33-2.25-2.95-2.25
	c-1.64,0-2.95,1-2.95,2.19c0,0.02,0.01,0.18,0.01,0.18h-2.37c0,0,0.01-0.1,0.01-0.11c0-1.19-1.33-2.25-2.95-2.25
	c-1.64,0-2.95,1-2.95,2.19c0,0.02,0.01,0.18,0.01,0.18h-2.37c0,0,0.01-0.1,0.01-0.11c0-1.19-1.33-2.25-2.95-2.25s-2.95,1-2.95,2.19
	c0,0.02,0.01,0.18,0.01,0.18h-2.37c0,0,0.01-0.1,0.01-0.11c0-1.19-1.33-2.25-2.95-2.25c-1.64,0-2.95,1-2.95,2.19
	c0,0.02,0.01,0.18,0.01,0.18h-2.37c0,0,0.01-0.1,0.01-0.11c0-1.19-1.33-2.25-2.95-2.25c-1.64,0-2.95,1-2.95,2.19
	c0,0.02,0.01,0.18,0.01,0.18h-2.37c0,0,0.01-0.1,0.01-0.11c0-1.19-1.33-2.25-2.95-2.25c-1.64,0-2.95,1-2.95,2.19
	c0,0.02,0.01,0.18,0.01,0.18h-2.42c0,0,0.01-0.1,0.01-0.11c0-1.19-1.33-2.25-2.95-2.25c-1.64,0-2.95,1-2.95,2.19
	c0,0.02,0.01,0.18,0.01,0.18h-2.37c0,0,0.01-0.1,0.01-0.11c0-1.19-1.33-2.25-2.95-2.25c-1.64,0-2.95,1-2.95,2.19
	c0,0.02,0.01,0.18,0.01,0.18h-2.37c0,0,0.01-0.1,0.01-0.11c0-1.19-1.33-2.25-2.95-2.25c-1.64,0-2.95,1-2.95,2.19
	c0,0.02,0.01,0.18,0.01,0.18h-2.37c0,0,0.01-0.1,0.01-0.11c0-1.19-1.33-2.25-2.95-2.25c-1.64,0-2.95,1-2.95,2.19
	c0,0.02,0.01,0.18,0.01,0.18h-2.37c0,0,0.01-0.1,0.01-0.11c0-1.19-1.33-2.25-2.95-2.25c-1.64,0-2.95,1-2.95,2.19
	c0,0.02,0.01,0.18,0.01,0.18h-2.37c0,0,0.01-0.1,0.01-0.11c0-1.19-1.33-2.25-2.95-2.25c-1.64,0-2.95,1-2.95,2.19
	c0,0.02,0.01,0.18,0.01,0.18h-2.4c0,0,0.01-0.1,0.01-0.11c0-1.19-1.33-2.25-2.95-2.25c-1.64,0-2.95,1-2.95,2.19
	c0,0.02,0.01,0.18,0.01,0.18h-2.37c0,0,0.01-0.1,0.01-0.11c0-1.19-1.33-2.25-2.95-2.25c-1.64,0-2.95,1-2.95,2.19
	c0,0.02,0.01,0.18,0.01,0.18h-2.37c0,0,0.01-0.1,0.01-0.11c0-1.19-1.33-2.25-2.95-2.25c-1.64,0-2.95,1-2.95,2.19
	c0,0.02,0.01,0.18,0.01,0.18h-2.37c0,0,0.01-0.1,0.01-0.11c0-1.19-1.33-2.25-2.95-2.25c-1.64,0-2.95,1-2.95,2.19
	c0,0.02,0.01,0.18,0.01,0.18h-2.37c0,0,0.01-0.1,0.01-0.11c0-1.19-1.33-2.25-2.95-2.25c-1.64,0-2.95,1-2.95,2.19
	c0,0.02,0.01,0.18,0.01,0.18h-2.37c0,0,0.01-0.1,0.01-0.11c0-1.19-1.33-2.25-2.95-2.25c-1.64,0-2.95,1-2.95,2.19
	c0,0.02,0.01,0.18,0.01,0.18h-2.78c0,0,0.01-0.1,0.01-0.11c0-1.19-1.49-2.25-3.12-2.25c-0.01,0-0.02,0-0.02,0
	c-1.2,0.01-2.19-0.91-2.19-2.1v-85.38v-67.78V891.1c0-1.17,0.95-2.1,2.1-2.1L-469.63,888.99L-469.63,888.99z"/>
<path id="XMLID_2799_" fill="#0D0D44" d="M-666,1136.06v7.4v10.77c0,3.65,4.33,6.78,9.77,6.78h68.71c0,0,0-0.12,0-0.13
	c0-5.72,6.93-10.42,15.48-10.42c8.54,0,15.48,4.71,15.48,10.44c0,0.02,0,0.11,0,0.11h79.59c5.44,0,9.37-3.13,9.37-6.78v-10.77v-7.4
	v-39.86H-666C-666,1096.19-666,1136.06-666,1136.06z"/>
<line fill="none" x1="-632.78" y1="904.96" x2="-632.78" y2="904.95"/>
<g>
	<g id="XMLID_4468_">
		<rect id="XMLID_4474_" x="-532.55" y="1003.55" fill="#0D0D44" width="2.29" height="43.2"/>
		<rect id="XMLID_4724_" x="-536.77" y="1003.55" fill="#0D0D44" width="2.29" height="43.2"/>
		<rect id="XMLID_4725_" x="-545.35" y="1003.55" fill="#0D0D44" width="2.29" height="43.2"/>
		<rect id="XMLID_4726_" x="-570.79" y="1003.55" fill="#0D0D44" width="2.29" height="43.2"/>
		<rect id="XMLID_4727_" x="-575.35" y="1003.55" fill="#0D0D44" width="2.29" height="43.2"/>
		<rect id="XMLID_4728_" x="-584.27" y="1003.55" fill="#0D0D44" width="6.54" height="43.2"/>
		<rect id="XMLID_4729_" x="-590.74" y="1003.55" fill="#0D0D44" width="2.05" height="43.2"/>
		<rect id="XMLID_4730_" x="-594.99" y="1003.55" fill="#0D0D44" width="2.05" height="43.2"/>
		<rect id="XMLID_4731_" x="-599.08" y="1003.55" fill="#0D0D44" width="2.05" height="43.2"/>
		<rect id="XMLID_4732_" x="-603.73" y="1003.55" fill="#0D0D44" width="2.05" height="43.2"/>
		<rect id="XMLID_4733_" x="-550.61" y="1003.55" fill="#0D0D44" width="2.29" height="43.2"/>
		<rect id="XMLID_4734_" x="-559.15" y="1003.55" fill="#0D0D44" width="6.3" height="43.2"/>
		<rect id="XMLID_4735_" x="-562.93" y="1003.55" fill="#0D0D44" width="0.96" height="43.2"/>
		<rect id="XMLID_4736_" x="-565.11" y="1003.55" fill="#0D0D44" width="0.96" height="43.2"/>
		<rect id="XMLID_4737_" x="-566.95" y="1003.55" fill="#0D0D44" width="0.96" height="43.2"/>
	</g>
	<text transform="matrix(1 0 0 1 -593.8038 994.0168)" fill="#0D0D44" font-family="'Impact'" font-size="50px">50</text>
</g>
</svg>
