<?xml version="1.0" encoding="utf-8"?>
<!-- Generator: Adobe Illustrator 19.0.0, SVG Export Plug-In . SVG Version: 6.00 Build 0)  -->
<svg version="1.1" id="Layer_1" xmlns="http://www.w3.org/2000/svg" xmlns:xlink="http://www.w3.org/1999/xlink" x="0px" y="0px"
	 viewBox="-230 232 50 50" enable-background="new -230 232 50 50" xml:space="preserve">
<g id="XMLID_3_">
</g>
<g id="XMLID_4_">
</g>
<g id="XMLID_5_">
</g>
<g id="XMLID_6_">
</g>
<g id="XMLID_7_">
</g>
<g id="XMLID_8_">
</g>
<g id="XMLID_9_">
</g>
<g id="XMLID_10_">
</g>
<g id="XMLID_11_">
</g>
<g id="XMLID_12_">
</g>
<g id="XMLID_13_">
</g>
<g id="XMLID_14_">
</g>
<g id="XMLID_15_">
</g>
<g id="XMLID_16_">
</g>
<g id="XMLID_17_">
</g>
<path fill="#943DC1" d="M-186.97,257.87l-13.9-15.93c-1.16-1.32-2.83-2.08-4.58-2.08s-3.43,0.76-4.58,2.08l-13.9,15.93
	c-0.33,0.38-0.41,0.93-0.2,1.39c0.21,0.46,0.67,0.76,1.18,0.76h2.38v16.21c0,0.72,0.58,1.3,1.3,1.3h27.66c0.72,0,1.3-0.58,1.3-1.3
	v-16.21h2.38c0.51,0,0.97-0.3,1.18-0.76C-186.55,258.8-186.63,258.25-186.97,257.87z M-208.08,243.65c0.66-0.76,1.62-1.19,2.63-1.19
	c1.01,0,1.96,0.44,2.63,1.19l12.02,13.78h-29.3L-208.08,243.65z M-192.92,274.93h-25.07v-14.91h25.07V274.93z"/>
</svg>
