<?xml version="1.0" encoding="utf-8"?>
<!-- Generator: Adobe Illustrator 19.0.0, SVG Export Plug-In . SVG Version: 6.00 Build 0)  -->
<svg version="1.1" id="Layer_1" xmlns="http://www.w3.org/2000/svg" xmlns:xlink="http://www.w3.org/1999/xlink" x="0px" y="0px"
	 viewBox="-99 101 50 50" style="enable-background:new -99 101 50 50;" xml:space="preserve">
<style type="text/css">
	.st0{fill:#943DC1;}
</style>
<g id="XMLID_1_">
</g>
<g id="XMLID_2_">
</g>
<g id="XMLID_3_">
</g>
<g id="XMLID_4_">
</g>
<g id="XMLID_5_">
</g>
<g id="XMLID_6_">
</g>
<g id="XMLID_7_">
</g>
<g id="XMLID_9_">
</g>
<g id="XMLID_12_">
</g>
<g id="XMLID_13_">
</g>
<g id="XMLID_14_">
</g>
<g id="XMLID_15_">
</g>
<g id="XMLID_16_">
</g>
<g id="XMLID_17_">
</g>
<g id="XMLID_18_">
</g>
<path class="st0" d="M-56.2,106.4h-35.6c-4,0-7.2,3.2-7.2,7.2v24.8c0,4,3.2,7.2,7.2,7.2h35.6c4,0,7.2-3.2,7.2-7.2v-24.8
	C-49,109.6-52.2,106.4-56.2,106.4z M-56.2,109.8c0.3,0,0.6,0,0.9,0.1l-15,17c-0.9,1-2.2,1.6-3.6,1.6c-1.4,0-2.7-0.6-3.6-1.6l-15-17
	c0.3-0.1,0.6-0.1,0.9-0.1H-56.2z M-52.5,138.4c0,2.1-1.7,3.8-3.8,3.8h-35.6c-2.1,0-3.8-1.7-3.8-3.8v-24.8c0-0.5,0.1-1,0.3-1.4
	l15,17.1c1.6,1.8,3.8,2.8,6.2,2.8c2.4,0,4.6-1,6.2-2.8l15-17.1c0.2,0.4,0.3,0.9,0.3,1.4V138.4z"/>
</svg>
