<?xml version="1.0" encoding="utf-8"?>
<!-- Generator: Adobe Illustrator 19.0.0, SVG Export Plug-In . SVG Version: 6.00 Build 0)  -->
<svg version="1.1" id="Layer_1" xmlns="http://www.w3.org/2000/svg" xmlns:xlink="http://www.w3.org/1999/xlink" x="0px" y="0px"
	 viewBox="-230 232 50 50" enable-background="new -230 232 50 50" xml:space="preserve">
<g id="XMLID_2_">
</g>
<g id="XMLID_28_">
</g>
<g id="XMLID_29_">
</g>
<g id="XMLID_30_">
</g>
<g id="XMLID_31_">
</g>
<g id="XMLID_32_">
</g>
<g id="XMLID_33_">
</g>
<g id="XMLID_34_">
</g>
<g id="XMLID_35_">
</g>
<g id="XMLID_36_">
</g>
<g id="XMLID_37_">
</g>
<g id="XMLID_38_">
</g>
<g id="XMLID_39_">
</g>
<g id="XMLID_40_">
</g>
<g id="XMLID_7_">
</g>
<g>
	<path fill="#9A34D6" d="M-212.3,245.16c-0.9,0-1.7,0.8-1.7,1.7s0.8,1.7,1.7,1.7c0.9,0,1.7-0.8,1.7-1.7S-211.3,245.16-212.3,245.16z
		 M-212.3,247.86c-0.5,0-1-0.4-1-1c0-0.6,0.4-1,1-1c0.5,0,1,0.4,1,1C-211.3,247.36-211.7,247.86-212.3,247.86z"/>
	<rect x="-209.5" y="265.36" fill="#9A34D6" width="12.5" height="1.3"/>
	<path fill="#9A34D6" d="M-212.3,251.56c-0.9,0-1.7,0.8-1.7,1.7c0,0.9,0.8,1.7,1.7,1.7c0.9,0,1.7-0.8,1.7-1.7
		C-210.6,252.36-211.3,251.56-212.3,251.56z M-212.3,254.26c-0.5,0-1-0.4-1-1c0-0.5,0.4-1,1-1c0.5,0,1,0.4,1,1
		C-211.3,253.76-211.7,254.26-212.3,254.26z"/>
	<path fill="#9A34D6" d="M-192.48,236.05h-25.04c-1.37,0-2.48,1.11-2.48,2.48v35.87c0,1.37,1.11,2.48,2.48,2.48h25.04
		c1.37,0,2.48-1.11,2.48-2.48v-35.87C-190,237.16-191.11,236.05-192.48,236.05z M-197.3,238.84l5,4.02h-3.1c-1,0-1.9-0.9-1.9-1.9
		V238.84z M-191.9,272.46c0,1-0.8,1.9-1.8,1.9h-22.5c-1,0-1.9-0.9-1.9-1.9v-32.1c0-1,0.9-1.8,1.9-1.8h18.1v2.4
		c0,1.4,1.2,2.6,2.7,2.6h3.5V272.46z"/>
	<path fill="#9A34D6" d="M-212.3,257.96c-0.9,0-1.7,0.8-1.7,1.7c0,0.9,0.8,1.7,1.7,1.7c0.9,0,1.7-0.8,1.7-1.7
		C-210.6,258.76-211.3,257.96-212.3,257.96z M-212.3,260.66c-0.5,0-1-0.4-1-1c0-0.5,0.4-1,1-1c0.5,0,1,0.4,1,1
		C-211.3,260.16-211.7,260.66-212.3,260.66z"/>
	<path fill="#9A34D6" d="M-212.3,264.26c-0.9,0-1.7,0.8-1.7,1.7c0,0.9,0.8,1.7,1.7,1.7c0.9,0,1.7-0.8,1.7-1.7
		C-210.6,265.06-211.3,264.26-212.3,264.26z M-212.3,267.06c-0.5,0-1-0.4-1-1c0-0.5,0.4-1,1-1c0.5,0,1,0.4,1,1
		C-211.3,266.56-211.7,267.06-212.3,267.06z"/>
	<rect x="-209.5" y="252.56" fill="#9A34D6" width="12.5" height="1.3"/>
	<rect x="-209.5" y="258.96" fill="#9A34D6" width="12.5" height="1.3"/>
	<rect x="-209.5" y="246.26" fill="#9A34D6" width="12.5" height="1.3"/>
</g>
</svg>
