<?xml version="1.0" encoding="utf-8"?>
<!-- Generator: Adobe Illustrator 19.0.0, SVG Export Plug-In . SVG Version: 6.00 Build 0)  -->
<svg version="1.1" id="Layer_1" xmlns="http://www.w3.org/2000/svg" xmlns:xlink="http://www.w3.org/1999/xlink" x="0px" y="0px"
	 viewBox="-230 232 50 50" enable-background="new -230 232 50 50" xml:space="preserve">
<g id="XMLID_3_">
</g>
<g id="XMLID_4_">
</g>
<g id="XMLID_5_">
</g>
<g id="XMLID_6_">
</g>
<g id="XMLID_7_">
</g>
<g id="XMLID_8_">
</g>
<g id="XMLID_9_">
</g>
<g id="XMLID_10_">
</g>
<g id="XMLID_11_">
</g>
<g id="XMLID_12_">
</g>
<g id="XMLID_13_">
</g>
<g id="XMLID_14_">
</g>
<g id="XMLID_15_">
</g>
<g id="XMLID_16_">
</g>
<g id="XMLID_17_">
</g>
<path fill="#943DC1" d="M-197.81,256.85c3.7-2.38,6.17-6.52,6.17-11.24c0-7.37-5.99-13.36-13.36-13.36
	c-7.37,0-13.36,5.99-13.36,13.36c0,4.72,2.47,8.86,6.17,11.24c-7.57,2.9-12.97,10.25-12.97,18.83c0,3.62,2.94,6.56,6.56,6.56h27.2
	c3.62,0,6.56-2.94,6.56-6.56C-184.84,267.1-190.23,259.75-197.81,256.85z M-214.91,245.61c0-5.47,4.45-9.91,9.91-9.91
	c5.47,0,9.91,4.45,9.91,9.91c0,5.46-4.45,9.91-9.91,9.91C-210.47,255.52-214.91,251.07-214.91,245.61z M-191.4,278.79h-27.2
	c-1.72,0-3.11-1.4-3.11-3.11c0-9.21,7.5-16.71,16.71-16.71c9.21,0,16.71,7.5,16.71,16.71C-188.29,277.4-189.68,278.79-191.4,278.79z
	"/>
</svg>
