<?xml version="1.0" encoding="utf-8"?>
<!-- Generator: Adobe Illustrator 19.0.0, SVG Export Plug-In . SVG Version: 6.00 Build 0)  -->
<svg version="1.1" id="Layer_1" xmlns="http://www.w3.org/2000/svg" xmlns:xlink="http://www.w3.org/1999/xlink" x="0px" y="0px"
	 viewBox="-230 232 50 50" enable-background="new -230 232 50 50" xml:space="preserve">
<g id="XMLID_2_">
</g>
<g id="XMLID_8_">
</g>
<g id="XMLID_10_">
</g>
<g id="XMLID_11_">
</g>
<g id="XMLID_12_">
</g>
<g id="XMLID_15_">
</g>
<g id="XMLID_16_">
</g>
<g id="XMLID_17_">
</g>
<g id="XMLID_18_">
</g>
<g id="XMLID_19_">
</g>
<g id="XMLID_20_">
</g>
<g id="XMLID_21_">
</g>
<g id="XMLID_22_">
</g>
<g id="XMLID_23_">
</g>
<g>
	<path fill="#943DC1" d="M-216.56,270.49c-1.71,0-3.09,1.31-3.09,2.92c0,1.61,1.38,2.92,3.09,2.92c1.71,0,3.09-1.31,3.09-2.92
		C-213.48,271.79-214.86,270.49-216.56,270.49z M-216.56,274.32c-0.6,0-1.09-0.41-1.09-0.92c0-0.5,0.49-0.92,1.09-0.92
		c0.6,0,1.09,0.41,1.09,0.92C-215.48,273.91-215.96,274.32-216.56,274.32z"/>
	<path fill="#943DC1" d="M-189.81,270.49c-1.71,0-3.09,1.31-3.09,2.92c0,1.61,1.38,2.92,3.09,2.92s3.09-1.31,3.09-2.92
		C-186.72,271.79-188.1,270.49-189.81,270.49z M-189.81,274.32c-0.6,0-1.09-0.41-1.09-0.92c0-0.5,0.49-0.92,1.09-0.92
		s1.09,0.41,1.09,0.92C-188.72,273.91-189.21,274.32-189.81,274.32z"/>
	<path id="XMLID_4_" fill="#943DC1" d="M-211.71,245.08c-1.88,0-3.44,1.56-3.44,3.44s1.56,3.44,3.44,3.44
		c1.88,0,3.44-1.56,3.44-3.44S-209.84,245.08-211.71,245.08z"/>
	<path fill="#943DC1" d="M-211.74,264.81c-7.78-9.26-9.44-13.63-9.44-15.66c0-5.22,4.25-9.47,9.47-9.47c5.16,0,9.36,4.25,9.36,9.47
		C-202.35,252.71-207.59,260.12-211.74,264.81z M-211.71,240.89c-4.21,0-7.63,3.42-7.63,7.63s3.42,7.63,7.63,7.63
		c4.28,0,7.63-3.35,7.63-7.63C-204.09,244.32-207.51,240.89-211.71,240.89z"/>
	<g>
		<path fill="#943DC1" d="M-182.78,268.6c0-1.37-0.17-1.03-1.03-2.92l-4.46-6.52c-0.51-0.86-2.4-4.46-7.2-4.12v13.55h-0.17v-13.21
			c0-2.83-2.07-5.27-4.75-5.86c-0.04,0.61-0.16,1.27-0.37,1.97c1.76,0.42,3.12,2.03,3.12,3.89v12.24l-12.01-0.04l-2.01,0.04
			l-0.29,0.34l-0.44,0.52l-0.57,0.66c-1.06-0.86-2.48-1.35-3.78-1.35c-1.33,0-2.36,0.51-3.18,1.14l-1.17-1.49h-2.23l-0.17-0.51
			V251.9l0.68-0.51c-0.21-0.71-0.33-1.38-0.35-2h-2.16l-0.17,0.51v19.04l0.17,0.51h3.26l1.89,2.4v1.2h0.17v-1.2
			c1.03-1.2,1.89-2.06,3.26-2.06c1.54,0,3.26,1.03,3.43,2.4v0.86h0.51v-1.03l2.06-2.4h1.72h10.29h1.72h1.37v3.26h1.72h0.51
			c0.02-0.12,0.06-0.23,0.09-0.34h-0.31l0.59-0.78c0.59-1.18,1.72-1.62,3.07-1.62c1.72,0,3.09,0.86,3.43,2.74h0.51h2.74v-1.37
			c0.17,0,0.34-0.17,0.34-0.34v-0.72C-182.43,270.11-182.78,268.6-182.78,268.6z M-194.95,264.14v-4.97h3.49
			c0.34,0,1.51,0,1.69,0.34l3.26,4.8L-194.95,264.14z M-184.87,268.33l-0.43,2.27c-0.93-1.56-2.6-2.46-4.69-2.46
			c-1.4,0-2.58,0.36-3.49,1.04v-3.01l7.67,0.14l0.25,0.37c0.27,0.58,0.47,0.95,0.63,1.23
			C-184.86,268.02-184.87,268.33-184.87,268.33z"/>
	</g>
</g>
</svg>
